<?xml version="1.0" standalone="no"?> <!DOCTYPE svg PUBLIC "-//W3C//DTD SVG 20010904//EN" "http://www.w3.org/TR/2001/REC-SVG-20010904/DTD/svg10.dtd"> <svg version="1.0" xmlns="http://www.w3.org/2000/svg" width="897.000000pt" height="558.000000pt" viewBox="0 0 897.000000 558.000000" preserveAspectRatio="xMidYMid meet"> <g transform="translate(0.000000,558.000000) scale(0.100000,-0.100000)" fill="#a81f1f" stroke="none"> <path d="M2790 4268 l0 -1138 835 0 835 0 0 1138 0 1137 -835 0 -835 0 0 -1137z m1616 1107 c-3 -9 0 -15 9 -15 9 0 12 6 8 17 -4 11 -3 14 5 9 7 -4 12 -16 12 -27 0 -11 -4 -18 -10 -14 -5 3 -5 -8 2 -26 7 -21 7 -33 1 -38 -7 -4 -8 -27 -3 -63 12 -85 9 -1128 -3 -1121 -6 4 -7 -5 -3 -23 3 -16 9 -96 13 -177 5 -119 3 -151 -7 -157 -11 -7 -11 -12 -2 -22 8 -10 11 -96 10 -289 l0 -274 -797 2 c-438 1 -803 2 -811 3 -13 0 -15 129 -15 1100 0 605 4 1100 8 1100 5 0 5 4 2 10 -4 6 265 11 787 13 436 1 795 3 797 5 2 1 1 -5 -3 -13z"/> <path d="M2958 5363 c7 -3 16 -2 19 1 4 3 -2 6 -13 5 -11 0 -14 -3 -6 -6z"/> <path d="M4403 5140 c0 -25 2 -35 4 -22 2 12 2 32 0 45 -2 12 -4 2 -4 -23z"/> <path d="M3474 4941 c-3 -3 -10 -7 -15 -7 -22 -3 -23 -5 -9 -14 10 -7 11 -10 2 -10 -9 0 -9 -6 3 -24 16 -23 18 -109 3 -99 -9 5 -9 3 -12 -49 -2 -20 -10 -47 -19 -61 -8 -13 -19 -42 -23 -63 l-7 -39 -13 30 c-15 35 -17 25 -5 -27 7 -29 5 -38 -6 -42 -9 -4 -13 -13 -9 -22 3 -8 1 -25 -5 -36 -9 -17 -13 -18 -21 -7 -7 11 -8 9 -4 -5 4 -10 3 -34 0 -53 -5 -26 -9 -32 -16 -21 -8 10 -9 9 -4 -4 3 -9 -2 -31 -11 -49 -9 -18 -16 -46 -16 -63 1 -17 -1 -25 -4 -18 -9 25 -22 11 -16 -18 3 -19 1 -30 -6 -30 -6 0 -11 -11 -11 -25 0 -14 -4 -25 -10 -25 -5 0 -10 -5 -10 -11 0 -5 4 -8 9 -5 4 3 1 -16 -8 -42 -9 -26 -19 -49 -24 -50 -4 -2 -5 -7 -2 -12 7 -11 -15 -60 -26 -60 -5 0 -6 -7 -3 -15 3 -8 -1 -24 -9 -35 -8 -12 -13 -31 -11 -43 2 -12 1 -16 -2 -9 -5 10 -9 10 -20 1 -8 -6 -14 -17 -14 -23 0 -6 4 -4 10 4 5 8 12 11 16 7 4 -3 1 -14 -7 -23 -7 -9 -14 -22 -15 -30 -3 -20 -46 -54 -62 -49 -7 3 -10 0 -7 -5 5 -8 -32 -24 -60 -25 -5 0 -12 -11 -13 -24 -2 -15 0 -21 7 -17 6 4 11 5 11 1 0 -3 -10 -10 -22 -15 -16 -6 -18 -9 -7 -9 9 -1 22 -8 29 -16 19 -23 442 -22 461 1 18 21 19 56 2 72 -7 7 -13 11 -13 9 0 -3 -21 3 -47 13 -27 10 -47 24 -45 30 1 6 -2 9 -8 5 -5 -3 -10 0 -10 9 0 8 -4 16 -8 18 -4 2 -4 27 1 57 6 37 12 50 18 40 5 -9 7 1 5 29 -2 23 1 42 6 42 5 0 6 5 3 10 -14 23 52 31 214 25 207 -7 193 -4 185 -28 -4 -14 -3 -17 6 -12 8 5 11 4 6 -3 -4 -6 0 -26 7 -44 8 -18 12 -39 10 -45 -3 -7 1 -13 7 -13 9 0 11 -10 6 -30 -3 -19 -2 -29 4 -25 6 3 10 1 10 -4 0 -6 -4 -11 -10 -11 -5 0 -9 -5 -7 -11 1 -6 -8 -18 -21 -26 -21 -15 -22 -14 -15 3 6 16 5 17 -9 4 -9 -8 -14 -18 -11 -22 3 -7 -33 -12 -58 -10 -12 2 0 -81 13 -89 7 -5 144 -9 304 -9 269 0 292 1 307 18 20 22 22 43 5 61 -11 11 -10 12 1 6 10 -6 12 -4 7 4 -4 7 -13 10 -19 8 -7 -2 -25 5 -42 17 -16 11 -32 19 -35 18 -2 -2 -6 2 -9 9 -2 7 1 9 8 5 13 -9 14 4 1 24 -6 10 -10 11 -10 3 0 -7 -5 -13 -11 -13 -5 0 -7 5 -4 10 3 6 1 10 -4 10 -6 0 -11 8 -11 18 -1 9 -12 49 -26 87 -29 79 -42 141 -27 132 5 -3 10 -1 10 6 0 7 3 23 7 37 6 19 5 21 -3 10 -9 -13 -11 -13 -11 -1 0 11 -4 9 -14 -4 -8 -11 -12 -24 -8 -29 3 -5 9 -1 13 10 6 16 8 16 8 2 1 -9 -4 -20 -10 -24 -16 -9 -29 17 -23 43 4 15 1 25 -9 29 -9 3 -13 12 -10 20 3 8 0 14 -7 14 -7 0 -10 7 -6 15 3 8 2 15 -3 15 -5 0 -11 18 -15 40 -3 23 -11 49 -16 58 -19 36 -49 144 -44 160 5 13 4 14 -4 4 -7 -11 -11 -8 -15 10 -9 33 -7 47 3 23 7 -15 9 -16 9 -4 1 9 -6 22 -15 29 -19 16 -44 75 -50 114 -2 16 -8 34 -14 40 -13 13 -13 29 0 21 6 -3 7 1 4 9 -3 9 -10 14 -14 11 -7 -4 -20 22 -25 50 -6 36 -42 134 -57 156 l-18 27 -160 -1 c-88 0 -162 -3 -166 -6z m382 -177 c90 -274 316 -938 326 -959 19 -36 60 -74 89 -80 23 -5 29 -12 29 -33 l0 -27 -295 0 c-162 0 -295 4 -295 8 0 4 0 15 0 26 0 14 11 21 43 29 52 14 87 45 87 78 0 13 -13 66 -30 116 -16 50 -30 97 -30 105 0 11 -37 13 -212 11 l-212 -3 -27 -90 c-33 -107 -34 -128 -12 -166 17 -28 75 -59 113 -59 15 0 20 -7 20 -27 l0 -28 -220 -2 -220 -3 0 29 c0 25 5 31 31 36 52 12 95 59 124 138 15 40 35 92 45 117 9 25 32 90 50 145 18 55 47 143 65 195 18 52 66 189 105 304 l72 209 -16 41 c-9 23 -16 44 -16 46 0 3 75 4 167 4 l167 -2 52 -158z"/> <path d="M3482 4417 c-46 -139 -85 -256 -88 -262 -3 -6 58 -10 171 -10 96 0 175 4 175 8 0 4 -7 24 -16 45 -13 31 -110 323 -146 440 -5 17 -10 32 -11 32 -1 0 -39 -114 -85 -253z m98 122 c0 -10 4 -19 9 -19 9 0 21 -35 27 -82 2 -14 15 -51 28 -82 14 -31 21 -54 16 -51 -6 4 -1 -9 10 -28 12 -21 18 -41 13 -52 -5 -13 -3 -16 6 -10 10 6 11 2 6 -15 -5 -15 -4 -20 4 -16 6 4 11 3 11 -3 0 -5 -4 -13 -10 -16 -5 -3 -10 -3 -10 2 0 4 -56 8 -125 8 -91 0 -126 3 -130 13 -2 6 0 12 5 12 6 0 10 5 10 11 0 5 -5 7 -12 3 -6 -4 -1 10 12 30 12 21 24 50 25 65 3 48 5 52 16 45 9 -5 10 1 5 20 -4 18 -3 25 4 21 6 -3 11 4 12 17 3 45 21 93 45 120 10 11 12 18 5 18 -7 0 -12 4 -12 10 0 5 7 7 15 4 8 -4 15 -15 15 -25z"/> <path d="M3565 4500 c-3 -5 -1 -10 4 -10 6 0 11 5 11 10 0 6 -2 10 -4 10 -3 0 -8 -4 -11 -10z"/> <path d="M3506 4345 c-9 -26 -7 -32 5 -12 6 10 9 21 6 23 -2 3 -7 -2 -11 -11z"/> <path d="M3661 4594 c0 -11 3 -14 6 -6 3 7 2 16 -1 19 -3 4 -6 -2 -5 -13z"/> <path d="M3851 4564 c0 -11 3 -14 6 -6 3 7 2 16 -1 19 -3 4 -6 -2 -5 -13z"/> <path d="M3937 4373 c3 -7 6 -13 8 -13 2 0 5 6 8 13 3 8 -1 14 -8 14 -7 0 -11 -6 -8 -14z"/> <path d="M3741 4304 c0 -11 3 -14 6 -6 3 7 2 16 -1 19 -3 4 -6 -2 -5 -13z"/> <path d="M3371 4290 c0 -8 4 -22 9 -30 12 -18 12 -2 0 25 -6 13 -9 15 -9 5z"/> <path d="M3401 4284 c0 -11 3 -14 6 -6 3 7 2 16 -1 19 -3 4 -6 -2 -5 -13z"/> <path d="M3341 4244 c0 -11 3 -14 6 -6 3 7 2 16 -1 19 -3 4 -6 -2 -5 -13z"/> <path d="M3360 4220 c-9 -6 -10 -10 -3 -10 6 0 15 5 18 10 8 12 4 12 -15 0z"/> <path d="M4022 4125 c0 -16 2 -22 5 -12 2 9 2 23 0 30 -3 6 -5 -1 -5 -18z"/> <path d="M3251 3974 c0 -11 3 -14 6 -6 3 7 2 16 -1 19 -3 4 -6 -2 -5 -13z"/> <path d="M3451 4834 c0 -11 3 -14 6 -6 3 7 2 16 -1 19 -3 4 -6 -2 -5 -13z"/> <path d="M3900 4803 c0 -23 -2 -25 -11 -13 -8 11 -9 9 -3 -10 11 -40 20 -54 28 -41 4 6 2 11 -3 11 -6 0 -11 7 -11 16 0 8 4 13 8 10 5 -3 6 8 4 25 -5 37 -12 38 -12 2z"/> <path d="M3383 4695 c-3 -9 -3 -18 -1 -21 3 -3 8 4 11 16 6 23 -1 27 -10 5z"/> <path d="M3411 4684 c0 -11 3 -14 6 -6 3 7 2 16 -1 19 -3 4 -6 -2 -5 -13z"/> <path d="M3980 4571 c0 -17 4 -32 8 -35 4 -2 6 11 4 30 -5 42 -12 45 -12 5z"/> <path d="M3311 4444 c0 -11 3 -14 6 -6 3 7 2 16 -1 19 -3 4 -6 -2 -5 -13z"/> <path d="M3286 4437 c3 -10 9 -15 12 -12 3 3 0 11 -7 18 -10 9 -11 8 -5 -6z"/> <path d="M4050 4311 c0 -6 4 -13 10 -16 6 -3 7 1 4 9 -7 18 -14 21 -14 7z"/> <path d="M4072 4260 c0 -14 2 -19 5 -12 2 6 2 18 0 25 -3 6 -5 1 -5 -13z"/> <path d="M3210 4164 c0 -10 5 -26 10 -34 8 -11 9 -7 4 15 -8 37 -14 45 -14 19z"/> <path d="M3200 4099 c0 -5 5 -7 10 -4 6 3 10 8 10 11 0 2 -4 4 -10 4 -5 0 -10 -5 -10 -11z"/> <path d="M3503 3993 c9 -2 23 -2 30 0 6 3 -1 5 -18 5 -16 0 -22 -2 -12 -5z"/> <path d="M3131 3934 c0 -11 3 -14 6 -6 3 7 2 16 -1 19 -3 4 -6 -2 -5 -13z"/> <path d="M3765 3899 c-4 -6 -5 -12 -2 -15 2 -3 7 2 10 11 7 17 1 20 -8 4z"/> <path d="M3780 3829 c0 -5 -4 -7 -10 -4 -14 9 -12 -1 3 -13 10 -8 13 -6 14 9 1 10 0 19 -3 19 -2 0 -4 -5 -4 -11z"/> <path d="M3080 3800 c-14 -11 -20 -20 -14 -20 6 0 19 9 29 20 23 25 17 25 -15 0z"/> <path d="M3497 3734 c-3 -5 1 -15 9 -22 16 -14 18 -5 5 17 -5 7 -11 9 -14 5z"/> <path d="M4423 3545 c0 -22 2 -30 4 -17 2 12 2 30 0 40 -3 9 -5 -1 -4 -23z"/> <path d="M4403 3300 c0 -25 2 -35 4 -22 2 12 2 32 0 45 -2 12 -4 2 -4 -23z"/> <path d="M3378 3173 c12 -2 32 -2 45 0 12 2 2 4 -23 4 -25 0 -35 -2 -22 -4z"/> <path d="M4248 3173 c7 -3 16 -2 19 1 4 3 -2 6 -13 5 -11 0 -14 -3 -6 -6z"/> <path d="M4405 3170 c-3 -5 1 -10 10 -10 9 0 13 5 10 10 -3 6 -8 10 -10 10 -2 0 -7 -4 -10 -10z"/> <path d="M4560 4268 l0 -1138 835 0 835 0 0 1138 0 1137 -835 0 -835 0 0 -1137z m1601 1100 c0 -10 2 -10 6 0 2 6 14 11 26 11 17 -1 18 -2 5 -6 -10 -2 -18 -9 -18 -14 0 -6 5 -7 10 -4 7 4 10 -358 10 -1079 0 -596 3 -1093 6 -1103 5 -15 4 -15 -5 -3 -8 11 -11 12 -11 2 0 -7 -4 -10 -10 -7 -5 3 -10 0 -10 -7 0 -9 -2 -10 -8 -1 -5 8 -51 10 -172 5 -91 -4 -434 -5 -763 -2 -328 3 -597 2 -597 -2 0 -5 -4 -8 -10 -8 -5 0 -11 15 -14 33 -5 33 -21 729 -19 877 1 145 1 702 0 755 0 28 2 149 5 270 3 121 2 173 -1 115 l-7 -105 -2 123 c-1 76 2 122 8 122 6 0 10 5 10 11 0 5 -6 7 -12 3 -9 -5 -9 -2 1 9 12 16 73 17 792 17 616 0 779 -3 780 -12z m-1568 -2168 c3 -34 2 -47 -3 -35 -8 19 -14 103 -6 94 2 -2 6 -29 9 -59z"/> <path d="M5118 5363 c45 -2 119 -2 165 0 45 1 8 3 -83 3 -91 0 -128 -2 -82 -3z"/> <path d="M5638 5363 c23 -2 61 -2 85 0 23 2 4 4 -43 4 -47 0 -66 -2 -42 -4z"/> <path d="M5928 5363 c6 -2 18 -2 25 0 6 3 1 5 -13 5 -14 0 -19 -2 -12 -5z"/> <path d="M5118 5343 c45 -2 119 -2 165 0 45 1 8 3 -83 3 -91 0 -128 -2 -82 -3z"/> <path d="M5698 5343 c12 -2 32 -2 45 0 12 2 2 4 -23 4 -25 0 -35 -2 -22 -4z"/> <path d="M6183 5300 c0 -25 2 -35 4 -22 2 12 2 32 0 45 -2 12 -4 2 -4 -23z"/> <path d="M4613 4940 c0 -47 2 -66 4 -42 2 23 2 61 0 85 -2 23 -4 4 -4 -43z"/> <path d="M4893 4952 c-46 -2 -75 -8 -83 -17 -13 -16 -21 -298 -9 -332 6 -16 4 -25 -8 -31 -11 -6 -12 -11 -4 -16 6 -4 11 -2 11 4 0 7 14 9 41 5 32 -5 44 -3 55 12 7 10 14 13 14 6 0 -6 -7 -19 -16 -27 -8 -9 -11 -16 -6 -16 18 0 33 28 34 64 1 32 3 34 15 18 8 -9 11 -11 8 -4 -4 7 -4 30 0 49 5 28 9 33 17 22 7 -11 9 -8 5 9 -5 23 -5 23 20 7 15 -10 22 -12 18 -4 -6 9 -3 11 8 6 9 -3 19 -1 23 5 4 6 3 8 -3 5 -6 -4 -18 2 -28 13 -17 18 -16 19 9 26 14 3 24 10 21 14 -3 5 5 6 17 2 14 -3 19 -1 14 6 -4 7 3 11 21 11 15 0 47 3 71 7 27 4 42 2 42 -5 0 -6 6 -8 13 -6 10 4 11 -18 5 -102 -3 -60 -5 -264 -3 -455 3 -192 1 -348 -3 -348 -4 0 -8 -11 -9 -25 -5 -53 -5 -54 -30 -44 -35 13 -40 11 -15 -7 25 -17 21 -34 -9 -34 -11 0 -18 -3 -16 -7 3 -5 -6 -9 -19 -9 -72 -5 -100 -37 -75 -90 l11 -24 344 0 c282 0 346 3 355 14 13 15 12 88 -1 80 -4 -3 -8 0 -8 5 0 6 -8 11 -17 11 -10 0 -26 7 -36 15 -11 7 -24 12 -30 11 -7 -2 -8 -1 -4 2 4 2 0 10 -10 18 -24 18 -38 18 -23 -1 11 -13 10 -14 -3 -9 -21 8 -41 64 -27 78 5 5 10 17 10 26 0 13 -1 13 -10 0 -6 -10 -9 152 -9 454 1 257 4 464 8 460 3 -5 27 -9 52 -10 54 -1 133 -29 124 -44 -4 -6 -3 -10 2 -9 22 4 25 -2 7 -16 -14 -11 -15 -14 -3 -9 10 3 20 0 24 -6 4 -6 15 -8 26 -5 10 4 19 2 19 -3 0 -5 16 -39 36 -74 35 -63 37 -65 70 -61 27 4 34 1 34 -13 0 -23 9 -13 15 15 7 35 8 231 2 238 -4 3 -2 14 4 25 6 11 7 27 3 36 -13 30 -13 46 -1 61 10 12 9 13 -1 7 -7 -4 -20 -2 -29 5 -12 11 -117 14 -512 14 -273 0 -528 -1 -568 -3z m1080 -134 c4 -62 7 -140 7 -173 l0 -61 -34 4 c-30 4 -36 9 -51 50 -46 123 -118 175 -262 187 l-83 7 1 -443 c0 -244 3 -475 8 -513 6 -60 11 -73 39 -97 17 -15 56 -35 86 -45 49 -15 56 -21 56 -43 l0 -26 -345 0 -345 0 0 26 c0 23 5 27 38 33 51 9 102 36 124 66 30 41 38 166 38 618 l0 423 -67 -7 c-163 -14 -216 -48 -269 -168 -29 -66 -29 -66 -81 -66 -5 0 -7 73 -5 163 1 89 2 165 2 170 0 4 256 7 568 7 l569 0 6 -112z m24 30 c-3 -8 -6 -5 -6 6 -1 11 2 17 5 13 3 -3 4 -12 1 -19z m-183 -137 c-8 -9 -22 12 -17 26 6 15 7 14 13 -3 4 -10 6 -21 4 -23z m-237 -763 c-3 -7 -5 -2 -5 12 0 14 2 19 5 13 2 -7 2 -19 0 -25z"/> <path d="M4860 4869 c0 -5 5 -7 10 -4 6 3 10 8 10 11 0 2 -4 4 -10 4 -5 0 -10 -5 -10 -11z"/> <path d="M5737 4848 c-7 -4 -4 -7 8 -7 11 1 29 -2 40 -6 12 -3 28 1 40 10 20 16 20 16 -2 6 -28 -14 -55 -15 -34 -2 10 7 6 9 -13 8 -15 -1 -33 -5 -39 -9z"/> <path d="M4881 4764 c0 -11 3 -14 6 -6 3 7 2 16 -1 19 -3 4 -6 -2 -5 -13z"/> <path d="M4906 4767 c3 -10 9 -15 12 -12 3 3 0 11 -7 18 -10 9 -11 8 -5 -6z"/> <path d="M4936 4765 c-9 -26 -7 -32 5 -12 6 10 9 21 6 23 -2 3 -7 -2 -11 -11z"/> <path d="M5915 4699 c-4 -6 -5 -12 -2 -15 2 -3 7 2 10 11 7 17 1 20 -8 4z"/> <path d="M5233 3760 c2 -8 13 -15 24 -16 15 -1 20 3 16 13 -5 12 -7 12 -14 1 -7 -11 -11 -10 -20 2 -9 13 -10 13 -6 0z"/> <path d="M5560 3750 c0 -5 7 -7 15 -4 8 4 15 8 15 10 0 2 -7 4 -15 4 -8 0 -15 -4 -15 -10z"/> <path d="M5195 3739 c-4 -6 -5 -12 -2 -15 2 -3 7 2 10 11 7 17 1 20 -8 4z"/> <path d="M4593 4820 c0 -25 2 -35 4 -22 2 12 2 32 0 45 -2 12 -4 2 -4 -23z"/> <path d="M4614 4460 c0 -179 2 -252 3 -162 2 89 2 235 0 325 -1 89 -3 16 -3 -163z"/> <path d="M5603 4740 c0 -25 2 -35 4 -22 2 12 2 32 0 45 -2 12 -4 2 -4 -23z"/> <path d="M5867 4583 c-4 -3 -7 -11 -7 -17 0 -6 5 -5 12 2 6 6 9 14 7 17 -3 3 -9 2 -12 -2z"/> <path d="M5890 4561 c0 -6 4 -13 10 -16 6 -3 7 1 4 9 -7 18 -14 21 -14 7z"/> <path d="M5950 4549 c0 -5 5 -7 10 -4 6 3 10 8 10 11 0 2 -4 4 -10 4 -5 0 -10 -5 -10 -11z"/> <path d="M5603 4420 c0 -25 2 -35 4 -22 2 12 2 32 0 45 -2 12 -4 2 -4 -23z"/> <path d="M5603 4260 c0 -25 2 -35 4 -22 2 12 2 32 0 45 -2 12 -4 2 -4 -23z"/> <path d="M6183 4220 c0 -47 2 -66 4 -42 2 23 2 61 0 85 -2 23 -4 4 -4 -43z"/> <path d="M4593 4060 c0 -47 2 -66 4 -42 2 23 2 61 0 85 -2 23 -4 4 -4 -43z"/> <path d="M5603 4100 c0 -25 2 -35 4 -22 2 12 2 32 0 45 -2 12 -4 2 -4 -23z"/> <path d="M5633 4100 c0 -25 2 -35 4 -22 2 12 2 32 0 45 -2 12 -4 2 -4 -23z"/> <path d="M5663 4100 c0 -25 2 -35 4 -22 2 12 2 32 0 45 -2 12 -4 2 -4 -23z"/> <path d="M6177 3965 c3 -55 7 -102 9 -104 7 -8 2 103 -6 154 -6 35 -6 19 -3 -50z"/> <path d="M4613 3630 c-1 -195 2 -377 5 -405 7 -48 5 652 -2 725 -1 19 -3 -125 -3 -320z"/> <path d="M5650 3811 c0 -5 7 -12 16 -15 14 -5 15 -4 4 9 -14 17 -20 19 -20 6z"/> <path d="M5126 3792 c-2 -4 7 -9 22 -10 21 -1 24 0 12 8 -18 12 -27 12 -34 2z"/> <path d="M2723 5220 c0 -25 2 -35 4 -22 2 12 2 32 0 45 -2 12 -4 2 -4 -23z"/> <path d="M2753 4260 c0 -25 2 -35 4 -22 2 12 2 32 0 45 -2 12 -4 2 -4 -23z"/> <path d="M2753 3460 c0 -25 2 -35 4 -22 2 12 2 32 0 45 -2 12 -4 2 -4 -23z"/> <path d="M2731 3114 c0 -11 3 -14 6 -6 3 7 2 16 -1 19 -3 4 -6 -2 -5 -13z"/> <path d="M4467 3123 c-4 -3 -7 -11 -7 -17 0 -6 5 -5 12 2 6 6 9 14 7 17 -3 3 -9 2 -12 -2z"/> <path d="M1971 2440 c14 -31 19 -36 19 -24 0 6 -7 19 -16 30 -14 18 -14 18 -3 -6z"/> <path d="M973 2443 c9 -2 23 -2 30 0 6 3 -1 5 -18 5 -16 0 -22 -2 -12 -5z"/> <path d="M7228 2433 c6 -2 18 -2 25 0 6 3 1 5 -13 5 -14 0 -19 -2 -12 -5z"/> <path d="M1018 2423 c7 -3 16 -2 19 1 4 3 -2 6 -13 5 -11 0 -14 -3 -6 -6z"/> <path d="M1740 2415 c-62 -19 -123 -75 -156 -140 -21 -43 -28 -75 -32 -145 l-5 -90 -43 0 c-42 0 -44 -1 -44 -30 0 -29 2 -30 45 -30 l45 0 3 -147 c4 -257 1 -312 -18 -333 -23 -26 -61 -33 -104 -19 -66 21 -78 40 -142 217 -98 272 -172 477 -221 610 -20 54 -35 81 -44 78 -7 -3 -55 -15 -108 -27 -61 -15 -96 -28 -96 -36 0 -7 4 -13 10 -13 5 0 14 -9 20 -21 10 -17 -9 -77 -114 -362 -70 -188 -134 -357 -143 -376 -11 -21 -36 -44 -65 -60 -26 -14 -48 -33 -48 -41 0 -13 22 -15 148 -12 114 2 149 6 149 16 0 7 -22 19 -49 26 -78 20 -83 44 -35 172 l32 88 167 2 166 3 31 -90 c40 -117 41 -150 1 -170 -16 -8 -36 -15 -45 -15 -8 0 -15 -8 -15 -17 0 -17 25 -18 410 -16 225 2 410 5 410 8 0 3 0 9 0 14 0 5 -17 11 -38 15 -74 11 -77 20 -80 265 -1 119 -5 222 -7 228 -2 7 -10 10 -18 7 -10 -4 -13 -29 -12 -110 2 -58 5 -108 9 -111 3 -4 5 -27 4 -52 l-1 -46 -7 45 c-5 30 -6 13 -4 -50 3 -102 7 -120 36 -162 11 -16 15 -28 10 -28 -14 0 -33 26 -25 33 3 4 1 7 -5 7 -7 0 -12 6 -12 14 0 8 -5 18 -12 22 -7 4 -8 3 -4 -5 11 -17 -3 -51 -22 -52 -13 0 -14 -2 -3 -6 8 -3 20 2 28 13 11 15 13 16 13 2 0 -23 -24 -28 -110 -26 -41 2 -67 4 -57 6 29 6 49 59 51 141 2 42 7 85 11 95 6 13 5 17 -2 13 -8 -5 -13 16 -15 65 -4 78 2 108 13 68 7 -24 7 -24 8 -2 1 12 -6 25 -14 28 -8 4 -15 10 -15 16 0 5 5 6 11 2 8 -4 8 0 0 15 -9 16 -9 21 1 21 10 0 10 2 0 9 -8 5 -12 21 -10 41 2 21 -2 34 -10 36 -7 1 -8 0 -2 -3 16 -8 12 -23 -5 -17 -15 6 -21 34 -7 34 4 0 14 13 23 29 13 22 14 32 5 41 -8 9 -8 14 0 17 6 2 10 24 8 53 -1 28 2 48 6 45 5 -3 12 0 16 6 4 8 3 9 -4 5 -16 -10 -15 -1 3 33 8 16 21 31 29 34 9 4 12 14 9 26 -3 13 -1 21 6 21 7 0 10 -4 7 -8 -3 -5 2 -9 10 -9 10 0 11 4 4 11 -12 12 -13 29 -1 22 5 -4 12 0 14 6 3 8 6 6 6 -5 1 -10 5 -16 11 -12 5 3 6 13 3 22 -4 11 -3 14 5 9 7 -4 12 -2 12 5 0 7 3 10 6 7 3 -4 -1 -19 -9 -35 -7 -15 -15 -46 -16 -68 -1 -22 -3 -56 -5 -75 -1 -19 0 -64 4 -99 5 -52 4 -64 -9 -69 -12 -5 -10 -7 8 -12 14 -3 26 -11 27 -18 1 -7 0 -8 -3 -2 -2 5 -12 10 -21 10 -15 0 -15 -2 -2 -10 12 -8 13 -11 1 -19 -8 -5 23 -9 83 -10 l96 -2 0 33 0 33 -73 -3 -74 -4 -6 88 c-7 100 5 217 24 240 40 48 79 40 108 -21 25 -54 50 -70 85 -54 30 14 43 61 26 94 -23 43 -139 58 -230 30z m162 -15 c22 0 31 -6 35 -21 4 -14 8 -17 13 -8 5 7 7 2 7 -14 -1 -14 -6 -25 -12 -24 -5 1 -9 -3 -8 -10 2 -6 -7 -11 -18 -10 -17 1 -20 6 -15 30 5 26 4 28 -17 21 -12 -3 -19 -3 -15 1 4 4 -2 17 -15 28 -18 16 -18 19 -4 14 10 -4 32 -7 49 -7z m-869 -64 c7 4 9 4 5 -1 -4 -4 -3 -14 2 -20 6 -7 12 -27 13 -44 1 -17 5 -31 9 -31 4 0 4 -7 1 -17 -5 -12 -3 -14 7 -8 9 6 11 4 5 -5 -4 -7 -2 -16 5 -20 9 -6 9 -12 1 -29 -8 -14 -8 -21 -1 -21 5 0 10 6 10 13 1 26 60 -136 61 -166 0 -18 3 -26 6 -18 8 20 33 -56 33 -102 0 -30 4 -40 20 -44 11 -3 17 -9 14 -14 -3 -5 -9 -7 -14 -4 -5 3 -4 -8 1 -25 6 -17 16 -27 22 -23 6 3 7 1 3 -5 -4 -7 -3 -12 3 -12 6 0 8 -7 5 -15 -4 -8 -1 -15 6 -15 7 0 10 -7 6 -15 -3 -9 2 -20 13 -27 12 -7 16 -18 13 -31 -4 -15 -2 -18 8 -12 9 5 11 4 6 -3 -4 -7 -4 -18 1 -24 4 -7 8 -17 10 -23 1 -5 5 -21 8 -35 6 -24 5 -24 -10 3 -9 16 -19 27 -21 24 -3 -3 4 -19 14 -36 17 -28 20 -30 26 -14 7 17 8 17 18 -2 6 -11 16 -24 22 -28 6 -5 -37 -7 -97 -4 -59 2 -105 1 -101 -2 3 -3 60 -8 127 -12 l122 -6 -156 0 -155 1 28 30 c29 30 36 60 17 72 -6 3 -9 15 -6 25 3 12 1 17 -5 13 -6 -4 -8 -1 -6 7 3 8 -1 27 -9 42 -8 16 -12 35 -9 42 3 9 0 12 -10 8 -12 -4 -13 -1 -4 21 5 14 6 25 2 24 -4 -1 -19 4 -34 12 -21 10 -24 15 -15 25 7 6 19 14 27 18 13 5 12 6 -1 6 -20 1 -39 41 -40 84 0 27 -2 29 -9 12 -8 -19 -9 -18 -11 5 -1 14 -1 33 -1 43 1 11 -2 15 -9 11 -8 -4 -9 1 -4 16 5 15 4 20 -4 16 -12 -8 -26 37 -17 52 3 6 -1 13 -10 16 -10 4 -13 13 -9 28 4 15 3 19 -3 10 -6 -9 -12 -1 -21 29 -7 22 -10 43 -7 46 3 3 9 -10 15 -28 6 -22 10 -26 10 -14 1 27 -27 67 -41 59 -6 -4 -8 -3 -5 2 3 6 -3 15 -14 22 -10 7 -18 9 -17 5 2 -5 0 -9 -4 -10 -9 -3 -9 4 3 34 5 13 6 30 2 39 -5 13 -2 15 17 9 15 -5 20 -4 16 4 -4 6 -15 11 -24 11 -15 0 -15 2 -2 10 8 6 27 7 42 4 14 -3 29 0 33 5 3 7 0 8 -9 5 -9 -3 -16 -1 -16 5 0 15 57 14 63 -1 3 -8 6 -4 7 7 2 17 3 18 7 2 3 -10 10 -14 16 -11z m-163 -157 c0 -6 -4 -7 -10 -4 -5 3 -10 11 -10 16 0 6 5 7 10 4 6 -3 10 -11 10 -16z m120 -249 c10 -30 25 -72 34 -92 9 -21 16 -40 16 -43 0 -3 -67 -5 -150 -5 -143 0 -162 3 -141 25 9 11 103 265 138 375 4 13 54 -113 103 -260z m785 80 c3 -5 1 -10 -4 -10 -6 0 -11 5 -11 10 0 6 2 10 4 10 3 0 8 -4 11 -10z m85 -6 c0 -2 -7 -4 -15 -4 -8 0 -15 4 -15 10 0 5 7 7 15 4 8 -4 15 -8 15 -10z m-1092 -92 c-7 -18 -16 -32 -20 -32 -12 0 -10 8 8 35 9 13 12 30 8 37 -5 9 -4 10 4 3 9 -8 9 -19 0 -43z m-37 -78 c-5 -16 -10 -21 -10 -12 -1 18 10 51 15 45 2 -1 -1 -16 -5 -33z m489 5 c0 -5 -4 -9 -10 -9 -5 0 -10 7 -10 16 0 8 5 12 10 9 6 -3 10 -10 10 -16z m-460 -77 c0 -2 -8 -1 -19 3 -20 6 -49 -28 -56 -67 -3 -11 -7 -23 -10 -27 -4 -3 -4 7 -1 23 3 16 10 34 16 40 5 5 10 21 10 36 0 20 2 22 10 10 8 -13 10 -12 10 2 0 17 1 17 20 1 11 -10 20 -19 20 -21z m227 2 c-3 -3 -12 -4 -19 -1 -8 3 -5 6 6 6 11 1 17 -2 13 -5z m-329 -159 c-3 -3 -9 2 -12 12 -6 14 -5 15 5 6 7 -7 10 -15 7 -18z m-8 -21 c0 -8 -19 -13 -24 -6 -3 5 1 9 9 9 8 0 15 -2 15 -3z m0 -79 c17 -15 17 -19 5 -32 -20 -19 -120 -16 -104 4 7 7 16 13 22 13 5 0 16 8 24 18 8 9 11 11 7 3 -4 -9 -3 -12 4 -7 6 3 13 2 17 -4 3 -5 12 -10 18 -10 7 0 4 5 -5 11 -11 6 -17 21 -17 37 1 22 3 23 6 6 2 -12 13 -30 23 -39z m497 23 c-3 -7 -5 -2 -5 12 0 14 2 19 5 13 2 -7 2 -19 0 -25z m-467 -68 c0 -5 -2 -10 -4 -10 -3 0 -8 5 -11 10 -3 6 -1 10 4 10 6 0 11 -4 11 -10z"/> <path d="M1900 2380 c19 -13 30 -13 30 0 0 6 -10 10 -22 10 -19 0 -20 -2 -8 -10z"/> <path d="M990 2029 c0 -5 5 -7 10 -4 6 3 10 8 10 11 0 2 -4 4 -10 4 -5 0 -10 -5 -10 -11z"/> <path d="M1131 2004 c0 -11 3 -14 6 -6 3 7 2 16 -1 19 -3 4 -6 -2 -5 -13z"/> <path d="M1080 1780 c0 -5 5 -10 11 -10 5 0 7 5 4 10 -3 6 -8 10 -11 10 -2 0 -4 -4 -4 -10z"/> <path d="M1172 1540 c0 -14 2 -19 5 -12 2 6 2 18 0 25 -3 6 -5 1 -5 -13z"/> <path d="M1280 1521 c0 -6 4 -13 10 -16 6 -3 7 1 4 9 -7 18 -14 21 -14 7z"/> <path d="M578 1473 c12 -2 32 -2 45 0 12 2 2 4 -23 4 -25 0 -35 -2 -22 -4z"/> <path d="M1055 2410 c3 -5 8 -10 11 -10 2 0 4 5 4 10 0 6 -5 10 -11 10 -5 0 -7 -4 -4 -10z"/> <path d="M7335 2411 c-11 -5 -68 -19 -127 -31 -66 -14 -108 -28 -108 -35 0 -7 20 -18 45 -24 36 -9 46 -17 52 -39 5 -15 8 -189 8 -387 0 -391 -2 -410 -52 -421 -48 -10 -53 -13 -48 -26 4 -10 47 -12 195 -10 150 2 188 6 184 16 -3 7 -21 17 -42 22 -63 16 -62 10 -60 502 3 477 6 454 -47 433z m24 -480 c0 -327 3 -427 13 -439 10 -12 10 -14 1 -8 -8 4 -13 2 -13 -5 0 -6 8 -9 20 -6 11 3 22 1 25 -3 6 -10 -177 -6 -194 4 -6 4 -11 2 -11 -3 0 -6 -5 -11 -11 -11 -8 0 -7 5 1 15 8 10 21 13 34 9 21 -6 21 -6 1 10 -13 11 -15 14 -4 11 14 -5 15 0 9 40 -7 47 -3 96 10 105 4 3 10 78 13 168 3 90 3 161 0 158 -3 -2 -8 -76 -13 -163 -6 -137 -7 -121 -6 126 1 156 -1 275 -5 265 -5 -13 -7 -7 -6 17 1 21 5 35 10 32 4 -2 7 5 7 16 0 12 -3 20 -7 19 -5 -2 -20 9 -34 24 l-27 26 49 16 c26 9 58 16 71 16 13 0 30 5 38 10 11 7 17 5 22 -8 3 -9 7 -208 7 -441z"/> <path d="M7230 2303 c8 -3 19 -11 23 -17 6 -7 7 -6 4 4 -2 8 -12 16 -23 17 -13 2 -15 1 -4 -4z"/> <path d="M7262 2225 c0 -16 2 -22 5 -12 2 9 2 23 0 30 -3 6 -5 -1 -5 -18z"/> <path d="M7344 1940 c0 -157 2 -221 3 -142 2 78 2 206 0 285 -1 78 -3 14 -3 -143z"/> <path d="M7299 2023 c-5 -156 -3 -359 3 -313 6 52 7 350 1 350 -2 0 -4 -17 -4 -37z"/> <path d="M7323 1940 c0 -25 2 -35 4 -22 2 12 2 32 0 45 -2 12 -4 2 -4 -23z"/> <path d="M7261 1624 c0 -11 3 -14 6 -6 3 7 2 16 -1 19 -3 4 -6 -2 -5 -13z"/> <path d="M7238 1570 c2 -16 6 -30 8 -30 2 0 4 14 4 30 0 17 -4 30 -8 30 -5 0 -7 -13 -4 -30z"/> <path d="M7263 1575 c-3 -9 -3 -18 -1 -21 3 -3 8 4 11 16 6 23 -1 27 -10 5z"/> <path d="M1608 2403 c7 -3 16 -2 19 1 4 3 -2 6 -13 5 -11 0 -14 -3 -6 -6z"/> <path d="M806 2368 c3 -4 12 -8 20 -8 8 0 14 4 14 8 0 4 -9 8 -19 8 -11 0 -17 -4 -15 -8z"/> <path d="M1086 2367 c3 -10 9 -15 12 -12 3 3 0 11 -7 18 -10 9 -11 8 -5 -6z"/> <path d="M1590 2370 c-9 -6 -10 -10 -3 -10 6 0 15 5 18 10 8 12 4 12 -15 0z"/> <path d="M3200 2271 c0 -49 -3 -103 -6 -120 -6 -28 -4 -31 19 -31 19 0 26 6 30 28 11 55 48 122 75 136 15 8 61 16 102 17 l75 4 2 -380 c2 -292 0 -386 -10 -405 -9 -18 -28 -29 -65 -40 -29 -8 -52 -20 -52 -27 0 -10 52 -13 235 -13 219 0 235 1 235 18 0 14 -9 18 -41 19 -64 3 -86 23 -94 85 -3 29 -5 208 -3 398 l3 345 70 -4 c116 -5 144 -25 171 -123 14 -49 20 -58 37 -56 18 3 20 10 18 112 -1 61 -4 113 -7 118 -3 4 -183 8 -400 8 l-394 -1 0 -88z m102 47 l26 -3 -26 -19 c-14 -11 -22 -15 -19 -9 4 6 1 13 -7 16 -9 4 -12 0 -9 -11 5 -22 -32 -98 -41 -83 -4 6 -2 11 3 11 6 0 11 9 11 20 0 11 5 20 10 20 6 0 10 4 10 10 0 15 -28 0 -33 -18 -3 -10 -5 -5 -6 11 0 15 4 27 9 27 6 0 10 5 10 11 0 5 -4 7 -10 4 -5 -3 -10 -1 -10 4 0 6 9 11 20 11 11 0 20 6 20 13 0 9 2 9 8 0 4 -6 19 -13 34 -15z m485 16 c-3 -3 -12 -4 -19 -1 -8 3 -5 6 6 6 11 1 17 -2 13 -5z m183 -4 c0 -5 -4 -10 -10 -10 -5 0 -7 -7 -4 -15 4 -8 9 -13 13 -11 3 2 7 -18 8 -45 0 -27 -3 -49 -8 -49 -5 0 -9 9 -9 20 0 11 -4 20 -9 20 -5 0 -14 13 -21 30 -7 16 -16 27 -20 25 -5 -3 -12 0 -15 6 -4 6 -17 14 -29 19 -17 7 -13 9 21 9 40 1 42 0 49 -34 3 -19 10 -38 15 -41 11 -7 11 -1 -1 30 -10 27 -4 56 11 56 5 0 9 -4 9 -10z m-577 -7 c-7 -2 -19 -2 -25 0 -7 3 -2 5 12 5 14 0 19 -2 13 -5z m291 -11 c-4 -10 -9 -192 -10 -407 -2 -214 0 -384 3 -377 4 10 9 7 18 -10 8 -15 8 -27 2 -36 -7 -9 -6 -11 6 -6 9 3 22 2 31 -3 8 -4 -51 -8 -137 -9 -84 0 -144 1 -134 3 9 3 17 9 17 15 0 7 5 6 14 -1 11 -9 15 -8 20 4 3 9 2 13 -4 10 -6 -3 -10 -2 -10 4 0 5 5 13 11 17 6 3 9 15 6 25 -3 11 -2 17 2 15 4 -3 7 166 7 375 -1 319 -3 381 -15 389 -9 5 22 8 83 8 87 0 97 -2 90 -16z"/> <path d="M3533 1700 c0 -25 2 -35 4 -22 2 12 2 32 0 45 -2 12 -4 2 -4 -23z"/> <path d="M3676 1493 c-6 -14 -5 -15 5 -6 7 7 10 15 7 18 -3 3 -9 -2 -12 -12z"/> <path d="M3538 1473 c12 -2 32 -2 45 0 12 2 2 4 -23 4 -25 0 -35 -2 -22 -4z"/> <path d="M806 2273 c-6 -14 -5 -15 5 -6 7 7 10 15 7 18 -3 3 -9 -2 -12 -12z"/> <path d="M3844 2251 c0 -11 5 -17 13 -14 10 4 11 9 2 19 -15 18 -15 18 -15 -5z"/> <path d="M3306 2243 c-6 -14 -5 -15 5 -6 7 7 10 15 7 18 -3 3 -9 -2 -12 -12z"/> <path d="M1948 2243 c7 -3 16 -2 19 1 4 3 -2 6 -13 5 -11 0 -14 -3 -6 -6z"/> <path d="M3332 2234 c-14 -16 -5 -18 17 -5 7 5 9 11 5 14 -5 3 -15 -1 -22 -9z"/> <path d="M1908 2233 c7 -3 16 -2 19 1 4 3 -2 6 -13 5 -11 0 -14 -3 -6 -6z"/> <path d="M4043 2215 c-3 -9 -3 -19 1 -22 3 -4 6 1 6 11 0 10 5 14 12 10 7 -4 8 -3 4 4 -10 16 -15 15 -23 -3z"/> <path d="M3151 2204 c0 -11 3 -14 6 -6 3 7 2 16 -1 19 -3 4 -6 -2 -5 -13z"/> <path d="M5576 2195 c-29 -44 -109 -116 -164 -147 -65 -37 -68 -63 -7 -64 l40 0 5 -230 5 -231 29 -37 c39 -52 85 -70 162 -63 72 5 186 60 177 84 -3 9 -12 11 -22 7 -9 -3 -36 -9 -61 -11 -36 -4 -51 -1 -72 16 -34 27 -37 43 -41 274 l-3 187 83 0 83 0 0 33 0 32 -80 -3 -80 -4 0 91 c0 82 -2 91 -19 91 -10 0 -26 -11 -35 -25z m30 -87 c1 -32 -3 -58 -7 -58 -5 0 -8 -10 -8 -22 1 -18 2 -19 6 -5 4 15 7 16 19 6 11 -9 12 -14 3 -19 -18 -12 -28 -88 -23 -185 12 -227 12 -250 2 -263 -8 -9 -8 -16 1 -25 10 -9 11 -8 5 8 -4 11 10 1 30 -22 21 -24 40 -42 44 -42 21 3 32 -2 26 -13 -5 -8 -2 -9 10 -5 9 4 15 3 11 -2 -3 -6 -18 -10 -33 -11 -15 0 -36 -1 -47 -1 -11 -1 -31 2 -45 6 -20 5 -22 5 -10 -5 13 -10 12 -11 -5 -5 -11 4 -29 10 -39 13 -20 5 -20 5 0 13 15 6 13 8 -11 8 -51 1 -59 41 -57 279 1 112 4 208 7 213 4 5 -2 9 -12 9 -11 0 -14 3 -7 8 6 4 7 17 3 32 l-7 25 -1 -24 c-1 -13 -4 -22 -7 -18 -4 3 -4 17 0 31 4 18 11 24 27 21 17 -4 19 -2 9 10 -8 9 -8 15 -2 15 12 0 82 68 82 80 0 5 8 8 18 7 14 -1 17 -11 18 -59z m-166 -87 c0 -17 -19 -22 -37 -11 -15 9 -14 10 6 4 16 -4 21 -3 17 5 -4 6 -2 11 3 11 6 0 11 -4 11 -9z m278 -18 c-10 -2 -26 -2 -35 0 -10 3 -2 5 17 5 19 0 27 -2 18 -5z"/> <path d="M5563 2133 c-9 -16 -21 -34 -26 -41 -7 -9 -6 -11 7 -6 9 3 16 12 16 20 0 17 16 18 24 2 3 -7 3 -2 0 11 -4 16 -2 21 5 17 7 -5 9 -1 5 8 -8 21 -11 20 -31 -11z"/> <path d="M5505 2081 c-3 -5 -2 -12 3 -15 5 -3 9 1 9 9 0 17 -3 19 -12 6z"/> <path d="M5570 2081 c0 -5 5 -13 10 -16 6 -3 10 -2 10 4 0 5 -4 13 -10 16 -5 3 -10 2 -10 -4z"/> <path d="M5535 2060 c-3 -6 1 -7 9 -4 18 7 21 14 7 14 -6 0 -13 -4 -16 -10z"/> <path d="M5570 1990 c0 -5 5 -10 11 -10 5 0 7 5 4 10 -3 6 -8 10 -11 10 -2 0 -4 -4 -4 -10z"/> <path d="M5488 1565 c7 -34 26 -75 35 -75 4 0 1 13 -8 30 -19 37 -20 60 0 34 8 -10 15 -14 15 -7 0 6 -5 15 -10 18 -6 4 -8 10 -6 14 3 3 -3 7 -13 7 -13 0 -17 -6 -13 -21z"/> <path d="M5601 1511 c-9 -6 -6 -8 13 -8 14 0 23 3 20 8 -7 11 -15 11 -33 0z"/> <path d="M5660 1470 c-23 -7 -23 -8 -3 -9 12 -1 25 4 28 9 3 6 5 10 3 9 -2 -1 -14 -5 -28 -9z"/> <path d="M1171 2164 c0 -11 3 -14 6 -6 3 7 2 16 -1 19 -3 4 -6 -2 -5 -13z"/> <path d="M750 2151 c0 -6 4 -13 10 -16 6 -3 7 1 4 9 -7 18 -14 21 -14 7z"/> <path d="M1185 2139 c-4 -6 -5 -12 -2 -15 2 -3 7 2 10 11 7 17 1 20 -8 4z"/> <path d="M3141 2124 c0 -11 3 -14 6 -6 3 7 2 16 -1 19 -3 4 -6 -2 -5 -13z"/> <path d="M3926 2127 c3 -10 9 -15 12 -12 3 3 0 11 -7 18 -10 9 -11 8 -5 -6z"/> <path d="M5453 2133 c-7 -2 -13 -9 -13 -15 0 -6 6 -6 15 2 8 6 20 8 26 4 8 -4 9 -3 5 4 -8 13 -13 14 -33 5z"/> <path d="M5395 2110 c-3 -5 -1 -10 4 -10 6 0 11 5 11 10 0 6 -2 10 -4 10 -3 0 -8 -4 -11 -10z"/> <path d="M3260 2075 c0 -8 2 -15 4 -15 2 0 6 7 10 15 3 8 1 15 -4 15 -6 0 -10 -7 -10 -15z"/> <path d="M3943 2075 c0 -7 6 -11 14 -8 7 3 13 6 13 8 0 2 -6 5 -13 8 -8 3 -14 -1 -14 -8z"/> <path d="M4014 2056 c11 -9 24 -16 30 -16 12 0 7 5 -24 19 -24 11 -24 11 -6 -3z"/> <path d="M1583 2053 c-17 -6 -17 -20 0 -26 8 -3 13 3 13 14 0 11 0 19 -1 18 0 0 -6 -3 -12 -6z"/> <path d="M2086 2028 c-55 -15 -111 -29 -125 -31 -35 -5 -42 -37 -8 -37 14 0 35 -8 47 -18 21 -17 22 -26 27 -212 5 -223 1 -239 -60 -254 -20 -5 -37 -15 -37 -23 0 -10 40 -13 195 -13 159 0 195 3 195 14 0 8 -15 16 -38 20 -69 10 -73 22 -79 218 l-6 173 37 33 c44 39 73 40 130 7 37 -22 47 -24 75 -14 36 13 51 35 51 78 0 43 -9 60 -42 77 -60 31 -168 -22 -223 -108 -21 -34 -37 -36 -32 -5 2 12 1 45 -2 72 l-6 50 -99 -27z m81 -18 c1 -11 -4 -20 -10 -20 -7 0 -5 -5 4 -10 10 -6 15 -18 12 -33 -3 -13 2 -29 11 -36 12 -10 13 -18 4 -36 -6 -14 -14 -23 -17 -20 -4 2 -7 -5 -7 -15 0 -10 4 -16 10 -13 5 4 7 -38 4 -106 -3 -61 -2 -114 3 -117 5 -3 5 -13 -1 -24 -14 -26 -13 -50 1 -30 8 11 9 6 4 -20 -5 -26 -4 -31 4 -20 7 9 11 10 11 3 0 -6 -5 -15 -11 -18 -6 -4 -8 -13 -5 -21 3 -8 1 -14 -4 -14 -10 0 -14 15 -10 35 1 6 -4 4 -11 -2 -16 -16 -85 -17 -92 -3 -3 6 -4 5 -3 -2 1 -7 24 -16 52 -19 40 -5 34 -6 -34 -6 l-83 -1 27 23 c25 21 26 27 26 121 0 55 -1 133 -2 174 -1 41 0 100 3 130 2 30 2 44 0 32 -4 -23 -5 -23 -29 9 -28 38 -30 47 -8 28 14 -11 18 -11 28 3 7 9 37 23 67 31 30 9 54 16 54 16 1 1 1 -8 2 -19z m287 11 c11 -17 -5 -40 -22 -33 -16 5 -16 5 0 -11 18 -19 33 -23 23 -7 -3 6 -1 10 4 10 19 0 12 -30 -6 -31 -11 0 -13 -3 -5 -6 21 -8 13 -25 -9 -18 -14 5 -19 4 -15 -4 5 -7 1 -8 -10 -4 -13 5 -15 3 -9 -7 5 -9 4 -11 -4 -6 -9 6 -9 11 0 22 6 8 9 17 5 21 -3 3 -6 2 -6 -4 0 -6 -7 -14 -16 -17 -10 -4 -13 -2 -8 6 5 8 2 9 -10 5 -10 -4 -15 -3 -11 3 9 14 -34 17 -81 6 -24 -6 -25 -5 -11 8 9 9 22 13 30 10 8 -3 18 -1 22 5 3 7 0 8 -10 5 -11 -5 -14 -2 -9 10 4 10 12 15 19 12 8 -3 16 1 19 9 7 20 110 33 120 16z m-218 -558 c-6 -6 -36 9 -36 18 0 5 9 4 20 -3 10 -7 18 -14 16 -15z"/> <path d="M2138 2003 c7 -3 16 -2 19 1 4 3 -2 6 -13 5 -11 0 -14 -3 -6 -6z"/> <path d="M2080 1996 c0 -2 11 -6 25 -8 13 -3 22 -1 19 3 -5 9 -44 13 -44 5z"/> <path d="M2173 1889 c-2 -23 3 -25 10 -4 4 8 3 16 -1 19 -4 3 -9 -4 -9 -15z"/> <path d="M2062 1790 c0 -19 2 -27 5 -17 2 9 2 25 0 35 -3 9 -5 1 -5 -18z"/> <path d="M2060 1566 c0 -8 4 -17 9 -20 5 -4 7 3 4 14 -6 23 -13 26 -13 6z"/> <path d="M2435 2010 c3 -5 8 -10 11 -10 2 0 4 5 4 10 0 6 -5 10 -11 10 -5 0 -7 -4 -4 -10z"/> <path d="M2378 1983 c6 -2 18 -2 25 0 6 3 1 5 -13 5 -14 0 -19 -2 -12 -5z"/> <path d="M2356 1957 c10 -5 24 -5 36 0 17 7 14 9 -16 9 -27 0 -32 -2 -20 -9z"/> <path d="M2251 2026 l-24 -31 28 27 c16 15 27 29 24 31 -2 3 -15 -10 -28 -27z"/> <path d="M2541 2044 c0 -11 3 -14 6 -6 3 7 2 16 -1 19 -3 4 -6 -2 -5 -13z"/> <path d="M2635 2051 c-6 -11 13 -26 22 -17 4 3 1 6 -6 6 -7 0 -9 5 -6 10 3 6 4 10 1 10 -3 0 -7 -4 -11 -9z"/> <path d="M2812 2048 c-116 -13 -204 -69 -255 -163 -19 -34 -22 -56 -22 -145 0 -98 2 -109 29 -158 33 -60 81 -102 153 -135 68 -31 217 -32 285 0 116 53 180 152 184 285 4 96 -14 152 -67 212 -71 81 -182 119 -307 104z m-48 -50 c-15 -18 -31 -32 -36 -30 -5 1 -7 -2 -3 -8 4 -6 -1 -23 -11 -38 -10 -15 -17 -38 -15 -51 1 -13 -2 -34 -9 -46 -8 -15 -9 -32 -2 -56 10 -38 5 -96 -9 -105 -5 -3 -8 -24 -7 -47 l1 -42 7 45 7 45 2 -45 c1 -33 4 -41 11 -30 7 11 10 7 10 -17 0 -17 5 -35 10 -38 6 -4 8 -15 5 -24 -3 -11 2 -24 12 -32 16 -13 17 -12 4 4 -21 27 -7 30 18 3 l22 -23 -26 0 c-14 0 -28 4 -31 8 -3 5 -10 6 -16 3 -7 -4 -8 -2 -4 4 5 8 0 12 -13 12 -11 0 -28 11 -39 25 -11 13 -22 22 -25 19 -3 -3 -8 4 -12 15 -4 12 -11 18 -17 15 -7 -5 -9 -1 -5 9 3 8 -1 21 -9 28 -9 7 -13 21 -11 31 3 10 0 18 -6 18 -6 0 -7 3 -4 7 4 3 3 11 -2 17 -4 6 -11 20 -15 30 -5 16 -4 17 9 6 8 -7 15 -8 15 -2 0 5 -6 15 -13 21 -26 21 22 181 54 181 5 0 6 8 2 18 -3 9 -3 14 2 10 4 -4 16 3 26 17 11 13 35 29 54 35 19 6 35 16 35 21 0 6 9 8 19 4 11 -3 22 -1 26 5 3 5 9 10 11 10 3 0 -7 -15 -22 -32z m249 0 c20 -7 37 -17 37 -21 0 -5 -5 -5 -12 -1 -7 4 -8 3 -4 -4 4 -6 12 -9 19 -6 7 2 30 -15 52 -38 22 -23 34 -39 28 -34 -9 5 -11 2 -7 -8 3 -9 9 -14 13 -12 4 3 7 -3 8 -12 1 -9 5 -33 9 -52 10 -45 9 -70 -1 -94 -6 -14 -5 -17 3 -12 17 10 15 -6 -4 -32 -8 -12 -20 -20 -25 -17 -5 3 -6 -1 -2 -10 5 -13 7 -14 14 -3 6 9 9 7 9 -8 0 -21 -62 -79 -73 -68 -3 3 -14 1 -24 -6 -15 -9 -15 -10 7 -4 22 6 23 5 11 -10 -7 -9 -10 -16 -5 -16 4 0 18 12 31 28 12 15 22 22 23 16 0 -21 -91 -93 -126 -100 -21 -4 -31 -10 -27 -18 4 -8 2 -8 -7 1 -15 14 -3 36 16 29 16 -6 28 11 30 44 1 14 4 35 7 48 21 81 19 340 -2 328 -4 -3 -7 10 -6 29 1 32 -5 40 -27 36 -7 -1 -9 7 -7 26 0 4 -8 11 -18 15 -16 7 -16 8 2 4 11 -3 37 -11 58 -18z m-71 -15 c45 -51 53 -86 53 -253 0 -141 -2 -159 -22 -197 -30 -55 -58 -73 -113 -73 -38 0 -52 6 -76 29 -42 41 -55 88 -61 221 -6 137 12 228 54 272 23 24 35 28 83 28 49 0 60 -4 82 -27z m-245 -185 c-3 -8 -6 -5 -6 6 -1 11 2 17 5 13 3 -3 4 -12 1 -19z m295 -300 c-7 -7 -12 -8 -12 -2 0 14 12 26 19 19 2 -3 -1 -11 -7 -17z"/> <path d="M2730 1995 c-8 -9 -8 -15 -2 -15 12 0 26 19 19 26 -2 2 -10 -2 -17 -11z"/> <path d="M2600 1885 c-8 -9 -8 -15 -2 -15 12 0 26 19 19 26 -2 2 -10 -2 -17 -11z"/> <path d="M2570 1834 c0 -8 5 -12 10 -9 6 3 10 10 10 16 0 5 -4 9 -10 9 -5 0 -10 -7 -10 -16z"/> <path d="M2659 1769 c0 -29 -2 -31 -9 -14 -7 14 -8 8 -3 -20 7 -50 13 -57 14 -19 0 25 2 26 9 9 6 -13 7 -5 3 25 -7 56 -13 64 -14 19z"/> <path d="M2556 1753 c-6 -14 -5 -15 5 -6 7 7 10 15 7 18 -3 3 -9 -2 -12 -12z"/> <path d="M2595 1620 c3 -5 8 -10 11 -10 2 0 4 5 4 10 0 6 -5 10 -11 10 -5 0 -7 -4 -4 -10z"/> <path d="M2626 1563 c-6 -14 -5 -15 5 -6 7 7 10 15 7 18 -3 3 -9 -2 -12 -12z"/> <path d="M2980 1990 c8 -5 20 -10 25 -10 6 0 3 5 -5 10 -8 5 -19 10 -25 10 -5 0 -3 -5 5 -10z"/> <path d="M3060 1955 c0 -5 5 -17 10 -25 5 -8 10 -10 10 -5 0 6 -5 17 -10 25 -5 8 -10 11 -10 5z"/> <path d="M3036 1923 c-4 -9 -4 -14 0 -10 4 4 14 1 23 -6 14 -11 15 -10 1 8 -8 11 -15 21 -16 23 -1 2 -5 -5 -8 -15z"/> <path d="M3086 1913 c-6 -14 -5 -15 5 -6 7 7 10 15 7 18 -3 3 -9 -2 -12 -12z"/> <path d="M3132 1820 c0 -14 2 -19 5 -12 2 6 2 18 0 25 -3 6 -5 1 -5 -13z"/> <path d="M3031 1634 c0 -11 3 -14 6 -6 3 7 2 16 -1 19 -3 4 -6 -2 -5 -13z"/> <path d="M3035 1580 c-3 -5 -1 -10 4 -10 6 0 11 5 11 10 0 6 -2 10 -4 10 -3 0 -8 -4 -11 -10z"/> <path d="M2920 1950 c0 -5 5 -10 11 -10 5 0 7 5 4 10 -3 6 -8 10 -11 10 -2 0 -4 -4 -4 -10z"/> <path d="M2751 1664 c0 -11 3 -14 6 -6 3 7 2 16 -1 19 -3 4 -6 -2 -5 -13z"/> <path d="M2785 1549 c-4 -6 -5 -12 -2 -15 2 -3 7 2 10 11 7 17 1 20 -8 4z"/> <path d="M3453 2020 c0 -25 2 -35 4 -22 2 12 2 32 0 45 -2 12 -4 2 -4 -23z"/> <path d="M4420 2049 c-12 -8 -10 -9 9 -4 13 4 21 3 18 -2 -3 -5 3 -9 14 -9 19 0 19 1 3 13 -21 16 -25 16 -44 2z"/> <path d="M4765 2040 c-28 -9 -85 -25 -128 -35 -48 -12 -77 -24 -77 -32 0 -7 11 -13 24 -13 13 0 34 -9 47 -19 24 -19 24 -23 28 -220 l3 -200 -26 -25 c-14 -14 -37 -26 -51 -26 -16 0 -25 -6 -25 -15 0 -13 27 -15 185 -15 158 0 185 2 185 15 0 9 -9 15 -22 15 -28 1 -53 19 -61 45 -4 11 -9 102 -12 202 l-5 182 37 25 c52 34 101 41 146 23 60 -25 67 -52 67 -246 0 -93 -4 -181 -9 -194 -6 -16 -21 -28 -40 -32 -17 -4 -31 -13 -31 -20 0 -11 35 -15 175 -17 161 -3 175 -2 175 15 0 11 -8 17 -23 17 -13 0 -32 6 -43 14 -17 13 -19 32 -24 228 -5 193 -8 217 -28 253 -64 118 -227 121 -367 7 l-30 -25 -3 49 c-2 27 -6 52 -10 55 -4 4 -30 -1 -57 -11z m270 -30 c-2 -11 0 -18 6 -15 5 4 9 13 9 21 0 17 12 18 28 2 9 -9 12 -9 12 0 0 17 40 15 46 -3 4 -8 10 -15 16 -15 5 0 6 5 3 10 -3 6 -1 10 4 10 17 0 13 -18 -5 -28 -15 -8 -15 -10 0 -15 10 -4 15 -3 12 2 -3 5 1 12 9 15 12 4 21 -7 35 -40 21 -49 26 -68 10 -44 -6 9 -10 10 -10 3 0 -6 5 -15 10 -18 6 -4 8 -22 5 -43 -5 -29 -4 -34 5 -22 10 12 11 12 4 -5 -12 -30 -15 -255 -3 -230 l9 20 -4 -20 c-2 -11 -7 -29 -12 -39 -5 -14 -4 -17 5 -12 8 6 10 1 6 -17 -5 -17 -2 -26 9 -30 9 -4 16 -12 16 -18 0 -8 -5 -7 -17 2 -15 12 -16 12 -10 -3 7 -21 -3 -24 -21 -6 -7 7 -12 8 -12 2 0 -5 -22 -9 -49 -9 -27 0 -47 3 -44 7 2 5 0 8 -6 8 -5 0 -11 -6 -14 -12 -2 -7 -8 -10 -11 -6 -4 3 2 16 13 27 12 12 21 27 21 34 0 8 -4 7 -11 -3 -9 -12 -10 -12 -5 3 3 10 6 26 6 35 0 14 2 14 9 3 6 -9 8 2 5 30 -2 24 -5 99 -8 167 -3 82 -9 128 -18 139 -9 12 -9 15 0 9 6 -4 12 -2 12 3 0 6 -4 11 -10 11 -5 0 -19 9 -30 20 -11 11 -15 20 -9 20 7 0 18 -8 25 -17 7 -10 14 -13 14 -7 0 15 -19 30 -49 39 -16 5 -21 4 -17 -4 5 -7 1 -8 -9 -4 -14 5 -14 8 -3 15 8 6 -1 8 -29 5 -43 -5 -64 5 -42 19 8 4 9 3 5 -4 -10 -17 4 -14 44 8 45 24 50 24 45 0z m-230 0 c3 -5 1 -10 -6 -10 -8 0 -8 -5 3 -17 8 -10 13 -31 12 -48 -3 -23 -5 -248 -4 -400 0 -11 11 -32 25 -47 l25 -27 -33 4 c-58 8 -132 8 -155 1 l-23 -8 22 39 c12 21 26 41 33 45 7 5 6 8 -4 8 -13 0 -15 27 -18 174 -2 153 0 177 15 192 16 16 16 16 -3 10 -15 -5 -24 0 -33 18 -14 25 -8 48 12 45 7 -1 26 -1 42 0 23 1 27 3 15 11 -11 7 -5 8 20 4 26 -4 31 -3 20 5 -12 9 -11 11 7 11 12 0 25 -4 28 -10z"/> <path d="M5105 2010 c3 -5 11 -10 16 -10 6 0 7 5 4 10 -3 6 -11 10 -16 10 -6 0 -7 -4 -4 -10z"/> <path d="M5090 1980 c-10 -6 -11 -10 -2 -10 6 0 12 -6 12 -14 0 -8 4 -18 10 -21 7 -4 7 2 0 19 -7 20 -6 26 8 29 13 4 13 5 2 6 -8 0 -22 -4 -30 -9z"/> <path d="M5211 1504 c0 -11 3 -14 6 -6 3 7 2 16 -1 19 -3 4 -6 -2 -5 -13z"/> <path d="M4666 1965 c4 -8 11 -15 16 -15 6 0 5 6 -2 15 -7 8 -14 15 -16 15 -2 0 -1 -7 2 -15z"/> <path d="M4690 1864 c0 -21 4 -45 9 -53 5 -8 7 5 4 35 -7 61 -13 70 -13 18z"/> <path d="M4692 1760 c0 -14 2 -19 5 -12 2 6 2 18 0 25 -3 6 -5 1 -5 -13z"/> <path d="M4698 1615 c-2 -25 0 -45 4 -45 5 0 8 20 8 45 0 25 -2 45 -4 45 -2 0 -6 -20 -8 -45z"/> <path d="M4690 1500 c0 -5 5 -10 11 -10 5 0 7 5 4 10 -3 6 -8 10 -11 10 -2 0 -4 -4 -4 -10z"/> <path d="M4807 1489 c7 -7 15 -10 18 -7 3 3 -2 9 -12 12 -14 6 -15 5 -6 -5z"/> <path d="M4883 2044 c0 -16 13 -19 21 -5 3 5 0 11 -7 14 -8 3 -14 -1 -14 -9z"/> <path d="M5185 2050 c-3 -6 1 -7 9 -4 18 7 21 14 7 14 -6 0 -13 -4 -16 -10z"/> <path d="M5258 2052 c7 -5 10 -17 7 -28 -6 -17 -6 -18 5 -1 12 19 6 37 -13 37 -9 0 -8 -3 1 -8z"/> <path d="M5929 2058 c-9 -32 -6 -36 17 -26 18 8 21 14 12 20 -13 7 -27 11 -29 6z"/> <path d="M6814 2049 c-118 -14 -210 -80 -261 -187 -21 -44 -25 -69 -26 -140 -1 -136 42 -213 150 -267 78 -40 174 -46 253 -16 66 25 134 77 126 98 -3 8 -2 12 3 9 5 -3 14 1 21 10 10 11 10 18 2 26 -9 9 -17 7 -34 -9 -101 -92 -260 -69 -310 44 -26 58 -34 180 -18 257 17 83 68 138 129 140 50 1 62 -11 87 -88 9 -28 23 -57 32 -63 41 -33 112 9 112 66 0 79 -127 136 -266 120z m198 -57 c-7 -2 -10 -8 -7 -12 3 -5 11 -7 18 -4 7 2 18 -5 26 -17 12 -20 11 -21 -4 -15 -14 5 -16 4 -6 -7 8 -10 8 -22 2 -38 -5 -13 -10 -18 -10 -11 -1 6 -6 12 -12 12 -5 0 -7 -4 -4 -10 3 -5 -3 -10 -14 -10 -11 0 -23 5 -27 12 -5 7 -3 8 7 3 8 -5 6 1 -4 13 -11 11 -16 26 -12 31 3 6 1 11 -6 11 -6 0 -9 8 -6 19 3 14 1 18 -9 14 -20 -7 -17 7 3 22 13 9 25 10 47 2 17 -6 25 -12 18 -15z m-261 11 c-19 -4 -21 -7 -10 -14 10 -6 10 -9 2 -9 -7 0 -13 -8 -14 -17 0 -15 -2 -15 -9 2 -7 16 -9 11 -9 -20 -1 -22 -8 -50 -16 -63 -12 -16 -14 -35 -10 -74 4 -32 3 -48 -2 -41 -6 8 -9 0 -10 -25 0 -29 1 -33 8 -17 6 15 8 10 7 -21 -1 -27 5 -52 19 -75 16 -25 19 -36 10 -41 -12 -7 -2 -12 17 -9 5 1 4 -5 -4 -14 -11 -13 -10 -15 8 -13 11 2 20 -1 19 -7 -1 -5 -9 -10 -18 -9 -9 0 -16 -5 -16 -12 0 -8 9 -9 29 -3 18 5 39 3 59 -5 l30 -13 -23 -12 c-13 -7 -15 -9 -5 -6 11 3 31 8 45 11 22 4 24 3 12 -6 -11 -8 -6 -9 25 -4 22 4 49 10 61 15 39 14 23 -19 -18 -37 -53 -24 -185 -23 -242 2 -47 20 -76 42 -76 58 0 6 7 0 16 -12 8 -12 19 -22 25 -22 5 0 0 9 -12 21 -11 11 -18 27 -15 34 3 8 0 17 -6 21 -6 4 -8 3 -5 -3 4 -6 1 -16 -7 -22 -13 -11 -23 0 -30 29 -1 3 -8 16 -15 30 -8 14 -16 45 -18 70 -2 25 -5 56 -8 70 -4 19 -3 21 5 10 5 -9 10 -10 10 -3 0 6 3 20 6 30 5 15 4 16 -6 3 -25 -33 3 63 34 118 12 20 14 21 20 7 3 -10 12 -15 21 -11 10 4 15 -1 16 -17 1 -21 1 -21 9 3 4 14 8 42 9 62 1 31 5 39 26 44 14 3 23 9 21 13 -3 4 10 7 27 8 24 0 26 -1 8 -4z m-91 -75 c-1 -26 -3 -30 -10 -16 -6 9 -7 23 -4 32 9 25 14 19 14 -16z m-24 -3 c1 -14 -2 -25 -6 -25 -6 0 -7 36 -1 48 4 7 6 -1 7 -23z m399 -395 c-3 -5 -12 -10 -18 -10 -7 0 -6 4 3 10 19 12 23 12 15 0z"/> <path d="M6967 1999 c7 -7 15 -10 18 -7 3 3 -2 9 -12 12 -14 6 -15 5 -6 -5z"/> <path d="M6970 1970 c0 -5 5 -10 10 -10 6 0 10 5 10 10 0 6 -4 10 -10 10 -5 0 -10 -4 -10 -10z"/> <path d="M6691 1934 c0 -11 3 -14 6 -6 3 7 2 16 -1 19 -3 4 -6 -2 -5 -13z"/> <path d="M6602 1870 c0 -14 2 -19 5 -12 2 6 2 18 0 25 -3 6 -5 1 -5 -13z"/> <path d="M6576 1843 c-8 -20 9 -40 19 -22 6 8 4 10 -5 4 -9 -5 -10 -2 -5 14 8 25 0 29 -9 4z"/> <path d="M6621 1834 c0 -11 3 -14 6 -6 3 7 2 16 -1 19 -3 4 -6 -2 -5 -13z"/> <path d="M6661 1674 c0 -11 3 -14 6 -6 3 7 2 16 -1 19 -3 4 -6 -2 -5 -13z"/> <path d="M6775 1510 c3 -5 11 -10 16 -10 6 0 7 5 4 10 -3 6 -11 10 -16 10 -6 0 -7 -4 -4 -10z"/> <path d="M6752 1496 c7 -8 15 -12 17 -11 5 6 -10 25 -20 25 -5 0 -4 -6 3 -14z"/> <path d="M6716 1476 c4 -12 17 -16 48 -14 40 1 40 1 6 5 -19 3 -41 9 -48 15 -9 8 -11 7 -6 -6z"/> <path d="M6915 1475 c-25 -12 -26 -14 -5 -9 28 7 60 23 45 23 -5 0 -23 -6 -40 -14z"/> <path d="M6840 1470 c8 -5 22 -9 30 -9 10 0 8 3 -5 9 -27 12 -43 12 -25 0z"/> <path d="M7634 2046 c11 -9 23 -16 27 -16 14 0 19 19 8 26 -8 4 -9 3 -5 -4 9 -15 1 -15 -27 -1 -21 10 -21 10 -3 -5z"/> <path d="M8060 2050 c-13 -9 -13 -10 0 -10 13 0 13 -1 0 -11 -12 -8 -12 -10 -1 -7 8 2 15 12 17 21 3 20 3 19 -16 7z"/> <path d="M4124 2030 c-63 -25 -126 -85 -161 -154 -23 -44 -27 -64 -27 -146 -1 -80 3 -104 23 -148 59 -131 236 -197 386 -145 77 27 197 153 145 153 -5 0 -21 -11 -35 -26 -36 -36 -86 -54 -150 -54 -114 0 -177 69 -192 210 l-6 60 199 2 199 3 -2 35 c-7 99 -39 154 -116 198 -60 35 -190 41 -263 12z m182 -35 c26 -17 47 -98 38 -145 l-6 -30 -114 0 -114 0 6 43 c4 23 14 60 24 83 29 68 104 90 166 49z m61 12 c7 0 10 -4 8 -8 -3 -4 2 -10 11 -13 8 -3 12 -2 9 4 -3 6 -4 10 -1 10 3 0 10 -10 17 -21 9 -17 8 -20 -3 -13 -10 6 -10 4 1 -10 10 -12 16 -13 21 -6 8 13 25 -17 21 -39 -1 -7 2 -10 8 -6 6 3 11 -2 12 -12 0 -10 1 -33 2 -51 l2 -32 -57 0 c-62 0 -67 3 -43 26 8 9 15 21 15 27 0 7 -4 6 -10 -3 -10 -16 -11 -15 -14 40 -2 19 -3 45 -4 58 -1 13 -6 20 -12 17 -9 -5 -12 1 -9 21 0 4 -5 11 -13 16 -9 7 -7 8 7 3 11 -4 25 -8 32 -8z m-229 -8 c-10 -5 -15 -17 -12 -27 5 -13 4 -14 -4 -3 -13 17 -24 -1 -15 -25 5 -12 3 -15 -6 -9 -10 6 -11 2 -6 -15 4 -12 3 -20 -1 -17 -5 3 -9 -19 -9 -49 0 -39 3 -53 13 -49 6 2 12 0 12 -4 0 -5 -7 -12 -16 -15 -9 -4 -14 -13 -10 -22 4 -10 2 -13 -6 -8 -8 5 -9 2 -3 -12 5 -10 9 -32 9 -49 1 -16 12 -49 24 -73 13 -23 20 -47 17 -53 -4 -5 -3 -8 2 -7 12 4 93 -58 86 -66 -7 -7 -1 -8 80 -11 32 -1 63 -7 69 -13 8 -8 5 -9 -9 -6 -12 3 -24 1 -27 -5 -4 -6 -13 -11 -19 -11 -7 0 -6 4 3 10 11 7 6 9 -20 9 -19 -1 -27 -3 -17 -6 25 -7 21 -18 -8 -19 -14 -1 -23 1 -21 5 2 3 -26 5 -62 4 -61 -1 -65 0 -47 14 19 14 18 15 -14 8 -26 -6 -32 -4 -26 6 6 9 3 11 -8 6 -10 -3 -17 -2 -17 4 0 6 -5 7 -11 3 -8 -4 -9 1 -5 17 3 13 3 18 0 12 -11 -24 -24 -13 -18 13 5 19 4 25 -5 20 -6 -4 -9 -12 -6 -17 4 -5 1 -9 -4 -9 -6 0 -11 7 -11 16 0 8 -4 12 -10 9 -6 -4 -7 1 -3 11 4 11 2 15 -4 11 -6 -4 -13 1 -16 11 -3 9 -10 32 -15 50 -15 45 -5 40 14 -8 9 -23 18 -39 21 -37 2 2 -6 26 -19 53 -25 56 -28 85 -15 134 5 19 8 45 8 57 0 13 5 22 12 20 7 -1 11 7 9 21 -2 12 2 22 8 22 6 0 8 5 4 12 -4 7 -3 8 4 4 7 -4 12 -1 12 7 0 7 14 26 32 43 17 16 28 23 24 17 -4 -7 -2 -13 3 -13 6 0 11 4 11 8 0 5 10 14 23 20 28 13 48 15 25 1z m302 -473 c0 -2 -8 -10 -17 -17 -16 -13 -17 -12 -4 4 13 16 21 21 21 13z m-45 -36 c-3 -5 -12 -10 -18 -10 -7 0 -6 4 3 10 19 12 23 12 15 0z"/> <path d="M4155 1899 c-4 -6 -5 -12 -2 -15 2 -3 7 2 10 11 7 17 1 20 -8 4z"/> <path d="M4370 1954 c0 -8 5 -12 10 -9 6 4 8 11 5 16 -9 14 -15 11 -15 -7z"/> <path d="M4394 1929 c-3 -6 -2 -15 4 -21 6 -6 12 -6 17 3 6 8 4 10 -5 4 -10 -6 -12 -4 -7 8 7 19 2 23 -9 6z"/> <path d="M4430 1930 c0 -5 5 -10 11 -10 5 0 7 5 4 10 -3 6 -8 10 -11 10 -2 0 -4 -4 -4 -10z"/> <path d="M4055 1956 c-23 -25 -26 -40 -4 -19 12 12 21 24 18 27 -2 2 -9 -1 -14 -8z"/> <path d="M4025 1899 c-4 -6 -5 -12 -2 -15 2 -3 7 2 10 11 7 17 1 20 -8 4z"/> <path d="M3997 1831 c-4 -17 -3 -21 5 -13 5 5 8 16 6 23 -3 8 -7 3 -11 -10z"/> <path d="M3970 1790 c0 -5 5 -10 11 -10 5 0 7 5 4 10 -3 6 -8 10 -11 10 -2 0 -4 -4 -4 -10z"/> <path d="M4086 1627 c3 -10 9 -15 12 -12 3 3 0 11 -7 18 -10 9 -11 8 -5 -6z"/> <path d="M4097 1579 c-11 -7 -16 -17 -12 -29 3 -10 1 -21 -5 -25 -15 -9 -12 -22 4 -22 8 0 12 6 9 14 -7 17 13 17 21 1 5 -10 7 -10 12 0 9 19 21 14 28 -13 6 -22 9 -24 26 -12 19 11 19 13 3 24 -10 7 -24 18 -32 24 -10 9 -15 9 -21 -1 -7 -11 -12 -10 -25 4 -16 16 -16 18 1 31 22 17 17 19 -9 4z m78 -69 c3 -5 1 -10 -4 -10 -6 0 -11 5 -11 10 0 6 2 10 4 10 3 0 8 -4 11 -10z"/> <path d="M4056 1557 c3 -10 9 -15 12 -12 3 3 0 11 -7 18 -10 9 -11 8 -5 -6z"/> <path d="M4168 1463 c6 -2 18 -2 25 0 6 3 1 5 -13 5 -14 0 -19 -2 -12 -5z"/> <path d="M6025 2026 c-73 -26 -102 -46 -126 -83 -24 -36 -24 -65 -1 -86 36 -33 132 -11 132 29 0 21 28 74 53 102 26 28 85 30 118 3 21 -17 24 -29 28 -105 l3 -85 -58 -16 c-263 -73 -291 -88 -314 -174 -15 -58 7 -120 58 -159 32 -24 44 -27 111 -27 83 1 113 12 169 66 18 17 34 30 36 28 1 -2 7 -16 14 -32 15 -35 68 -67 112 -67 40 0 140 47 140 66 0 9 -9 12 -28 8 -33 -7 -61 15 -64 49 0 12 -1 101 -2 197 -1 214 -10 239 -95 283 -47 23 -66 27 -140 26 -64 0 -102 -6 -146 -23z m246 -12 c17 -8 33 -13 37 -10 10 11 41 -26 35 -42 -4 -10 -2 -14 2 -10 14 13 39 -32 26 -45 -6 -6 -11 -18 -10 -26 0 -11 3 -10 9 4 5 12 9 -52 9 -165 1 -187 6 -234 22 -224 5 3 9 0 9 -5 0 -6 -6 -11 -12 -11 -9 0 -8 -4 2 -10 20 -13 33 -13 25 0 -3 6 -1 10 5 10 7 0 10 -6 7 -12 -2 -9 -23 -13 -60 -13 -30 1 -53 -3 -50 -8 3 -5 -4 -4 -15 2 -13 7 -19 17 -16 26 4 8 11 12 16 9 6 -4 5 -10 -3 -15 -10 -6 -10 -9 -2 -9 22 0 23 17 2 36 -13 12 -19 14 -17 5 2 -7 -3 -16 -10 -18 -7 -3 -12 -1 -11 4 4 24 -3 43 -16 43 -8 0 -15 5 -15 10 0 6 7 10 15 10 8 0 12 6 10 13 -3 6 -6 103 -8 215 -3 160 -1 202 9 202 7 0 15 4 18 9 4 5 -4 7 -16 4 -19 -4 -21 -3 -8 7 13 10 13 11 -2 6 -11 -3 -18 0 -18 7 0 8 -4 7 -10 -3 -5 -8 -12 -11 -17 -7 -4 5 -1 12 7 17 19 12 16 13 51 -6z m-204 -1 c-9 -2 -15 -9 -12 -13 3 -5 -4 -19 -15 -30 -11 -11 -18 -26 -14 -32 4 -7 3 -8 -4 -4 -7 4 -12 1 -12 -9 0 -9 -4 -14 -9 -11 -4 3 -7 -5 -6 -19 2 -13 -3 -26 -11 -29 -10 -4 -12 -2 -8 6 5 8 2 9 -12 4 -35 -15 -49 -12 -47 9 5 46 11 61 31 71 12 6 19 13 16 17 -3 3 3 3 15 0 12 -3 21 -10 21 -15 0 -6 9 0 19 13 11 13 17 26 15 28 -2 3 -10 -3 -17 -12 -9 -13 -16 -14 -27 -6 -13 9 -12 10 3 5 9 -3 17 -1 17 5 0 11 37 28 60 27 10 0 9 -2 -3 -5z m178 -23 c3 -5 1 -10 -4 -10 -6 0 -11 5 -11 10 0 6 2 10 4 10 3 0 8 -4 11 -10z m-15 -334 c0 -101 -1 -105 -26 -125 -55 -43 -140 -36 -163 15 -34 76 3 146 99 186 36 14 71 27 78 27 9 1 12 -26 12 -103z m-180 40 c-7 -9 -17 -13 -23 -9 -6 4 -8 0 -4 -11 4 -10 1 -19 -6 -22 -7 -2 -13 -20 -13 -39 0 -18 3 -32 7 -29 4 2 5 -5 2 -15 -3 -12 3 -29 16 -42 29 -31 17 -41 -45 -35 -29 2 -56 0 -59 -5 -4 -5 2 -6 12 -3 15 5 15 4 3 -5 -16 -11 43 -9 101 4 16 4 29 3 29 -2 0 -5 16 -7 36 -5 26 3 35 1 30 -7 -4 -7 -16 -9 -27 -6 -13 4 -19 2 -17 -6 2 -8 -15 -13 -52 -14 -30 -1 -49 0 -42 3 6 2 12 8 12 13 0 6 -8 5 -20 -1 -16 -8 -29 -7 -57 7 -20 9 -31 19 -25 21 7 2 12 8 12 13 0 6 -4 8 -9 5 -17 -11 -32 20 -22 46 5 15 5 31 -1 41 -5 9 -6 22 -2 29 5 8 10 6 16 -8 5 -13 6 -8 2 14 -5 31 8 45 20 20 4 -7 4 -3 2 9 -4 22 -3 22 28 7 l31 -15 -25 21 c-21 17 -21 19 -5 14 11 -4 25 -10 30 -13 6 -3 3 1 -7 10 -17 16 -16 17 6 21 18 4 23 1 18 -10 -3 -10 -1 -13 6 -8 7 4 12 15 13 24 0 11 3 12 6 5 7 -20 23 -15 16 5 -5 14 -3 15 7 5 11 -10 11 -15 0 -27z m-167 -131 c-3 -9 -8 -14 -10 -11 -3 3 -2 9 2 15 9 16 15 13 8 -4z"/> <path d="M6330 1926 c0 -8 4 -17 9 -20 5 -4 7 3 4 14 -6 23 -13 26 -13 6z"/> <path d="M6363 1660 c0 -47 2 -66 4 -42 2 23 2 61 0 85 -2 23 -4 4 -4 -43z"/> <path d="M6321 1564 c0 -11 3 -14 6 -6 3 7 2 16 -1 19 -3 4 -6 -2 -5 -13z"/> <path d="M6348 1483 c7 -3 16 -2 19 1 4 3 -2 6 -13 5 -11 0 -14 -3 -6 -6z"/> <path d="M6348 1463 c6 -2 18 -2 25 0 6 3 1 5 -13 5 -14 0 -19 -2 -12 -5z"/> <path d="M5940 1942 c0 -5 7 -15 15 -22 8 -7 15 -8 15 -2 0 5 -7 15 -15 22 -8 7 -15 8 -15 2z"/> <path d="M6140 1706 c0 -2 7 -7 16 -10 8 -3 12 -2 9 4 -6 10 -25 14 -25 6z"/> <path d="M6166 1569 c2 -4 -2 -10 -8 -12 -8 -4 -9 -6 -2 -6 6 -1 17 5 23 12 8 10 7 14 -4 14 -8 0 -12 -4 -9 -8z"/> <path d="M6073 1549 c-2 -23 3 -25 10 -4 4 8 3 16 -1 19 -4 3 -9 -4 -9 -15z"/> <path d="M6118 1543 c7 -3 16 -2 19 1 4 3 -2 6 -13 5 -11 0 -14 -3 -6 -6z"/> <path d="M5920 1569 c0 -5 5 -7 10 -4 6 3 10 8 10 11 0 2 -4 4 -10 4 -5 0 -10 -5 -10 -11z"/> <path d="M5896 1545 c-3 -8 -1 -15 4 -15 6 0 10 7 10 15 0 8 -2 15 -4 15 -2 0 -6 -7 -10 -15z"/> <path d="M6006 1512 c-2 -4 4 -8 14 -8 10 0 16 4 14 8 -3 4 -9 8 -14 8 -5 0 -11 -4 -14 -8z"/> <path d="M6653 2043 c9 -2 23 -2 30 0 6 3 -1 5 -18 5 -16 0 -22 -2 -12 -5z"/> <path d="M7600 2040 c0 -5 5 -10 11 -10 5 0 7 5 4 10 -3 6 -8 10 -11 10 -2 0 -4 -4 -4 -10z"/> <path d="M7750 2041 c-95 -31 -172 -103 -204 -190 -14 -41 -17 -71 -14 -144 5 -99 16 -132 70 -193 77 -87 231 -120 349 -73 71 28 170 122 150 142 -8 8 -18 4 -38 -15 -46 -42 -87 -58 -153 -58 -101 0 -157 42 -184 141 -9 30 -16 72 -16 92 l0 37 198 2 197 3 -1 40 c-1 62 -11 89 -50 136 -53 64 -93 82 -194 86 -47 1 -96 -1 -110 -6z m153 -41 c29 -23 50 -101 41 -150 l-6 -30 -114 0 c-63 0 -114 4 -114 9 0 36 24 118 41 143 36 50 107 64 152 28z m104 -20 c29 -23 53 -46 53 -53 -1 -7 -10 -1 -20 12 -22 25 -26 21 -10 -10 7 -11 7 -19 1 -19 -5 0 -11 5 -13 12 -3 8 -6 6 -10 -4 -5 -13 0 -15 28 -13 19 1 32 0 29 -3 -3 -3 0 -11 6 -18 6 -8 9 -21 5 -29 -3 -9 -2 -13 4 -10 14 9 12 -4 -3 -19 -19 -19 -77 -31 -77 -16 0 10 -3 10 -14 1 -11 -9 -16 -9 -22 0 -4 7 -3 14 4 17 6 2 9 9 7 15 -2 7 -7 39 -9 72 -4 46 -10 63 -27 76 -20 15 -18 23 10 28 2 1 28 -17 58 -39z m-267 10 c0 -5 -5 -12 -12 -16 -7 -5 -8 -3 -3 6 5 8 3 11 -5 8 -7 -2 -13 -23 -14 -47 -1 -23 -8 -46 -15 -50 -10 -6 -10 -17 -3 -45 6 -20 7 -36 4 -36 -4 0 0 -5 8 -10 13 -8 13 -10 -2 -10 -13 0 -16 -10 -13 -57 1 -32 3 -58 5 -58 1 0 3 -10 6 -23 2 -13 10 -35 18 -51 14 -27 6 -64 -11 -48 -4 5 -1 13 7 18 13 9 13 10 1 7 -21 -6 -24 -24 -6 -41 20 -21 19 -31 -2 -22 -15 5 -16 4 -5 -7 11 -11 16 -10 26 5 17 22 28 22 24 1 -2 -10 4 -19 12 -21 12 -4 12 -3 1 5 -9 7 -10 12 -2 16 8 5 7 11 -2 21 -9 10 -15 10 -26 1 -11 -9 -13 -8 -9 4 7 21 19 19 58 -13 26 -21 28 -25 10 -17 l-25 13 20 -20 c14 -15 24 -18 33 -11 8 7 12 7 12 -1 0 -6 3 -10 8 -9 11 4 14 -5 7 -24 -5 -13 -15 -16 -43 -12 -21 3 -50 7 -65 8 -16 1 -32 7 -35 12 -4 5 -20 15 -35 22 -22 10 -27 17 -23 35 3 12 3 16 0 10 -8 -19 -25 -16 -22 3 2 10 -3 19 -10 21 -8 3 -10 -2 -6 -14 3 -10 -5 0 -17 22 -12 22 -24 56 -26 75 -7 56 -4 173 4 179 4 3 8 11 8 16 0 20 27 86 33 81 3 -3 10 4 17 17 6 12 19 21 28 21 9 -1 18 2 18 7 2 10 6 28 8 32 4 7 61 5 61 -3z m290 -474 c0 -2 -8 -10 -17 -17 -16 -13 -17 -12 -4 4 13 16 21 21 21 13z m-58 -37 c-12 -5 -30 -6 -40 -3 -15 5 -15 4 2 -10 18 -15 18 -15 0 -15 -11 0 -34 -2 -51 -5 -20 -4 -33 -1 -33 5 0 7 9 9 23 6 12 -4 29 -2 37 3 11 7 8 10 -15 11 l-30 1 30 7 c17 4 46 7 65 8 30 1 32 -1 12 -8z"/> <path d="M7836 1992 c-3 -5 1 -9 9 -9 8 0 12 4 9 9 -3 4 -7 8 -9 8 -2 0 -6 -4 -9 -8z"/> <path d="M7954 1995 c11 -8 24 -15 30 -15 5 0 1 7 -10 15 -10 8 -23 14 -29 14 -5 0 -1 -6 9 -14z"/> <path d="M7970 1949 c0 -5 5 -7 10 -4 6 3 10 8 10 11 0 2 -4 4 -10 4 -5 0 -10 -5 -10 -11z"/> <path d="M7978 1885 c2 -14 6 -25 8 -25 2 0 4 11 4 25 0 14 -4 25 -9 25 -4 0 -6 -11 -3 -25z"/> <path d="M7630 1926 c0 -8 4 -18 10 -21 6 -4 7 1 3 11 -4 12 -3 15 5 10 7 -4 12 -2 12 3 0 6 -7 11 -15 11 -8 0 -15 -6 -15 -14z"/> <path d="M7667 1917 c-3 -8 1 -14 8 -14 7 0 11 6 8 14 -3 7 -6 13 -8 13 -2 0 -5 -6 -8 -13z"/> <path d="M7591 1844 c0 -11 3 -14 6 -6 3 7 2 16 -1 19 -3 4 -6 -2 -5 -13z"/> <path d="M7586 1647 c3 -10 9 -15 12 -12 3 3 0 11 -7 18 -10 9 -11 8 -5 -6z"/> <path d="M7670 1651 c0 -6 4 -13 10 -16 6 -3 7 1 4 9 -7 18 -14 21 -14 7z"/> <path d="M7570 1627 c0 -2 7 -18 15 -33 13 -25 15 -26 15 -8 0 12 -7 27 -15 34 -8 7 -15 10 -15 7z"/> <path d="M7660 1511 c0 -6 4 -12 8 -15 5 -3 9 1 9 9 0 8 -4 15 -9 15 -4 0 -8 -4 -8 -9z"/> <path d="M7734 1470 c-13 -5 -5 -8 24 -8 23 0 42 1 42 2 0 8 -48 12 -66 6z"/> <path d="M8365 2044 c-109 -27 -174 -111 -162 -210 9 -80 59 -125 187 -164 124 -38 158 -69 145 -129 -11 -49 -57 -81 -118 -81 -73 0 -117 31 -157 114 -23 47 -36 63 -48 59 -15 -3 -17 -16 -14 -88 l3 -85 57 -17 c86 -27 244 -25 297 3 85 46 125 107 125 191 0 105 -38 142 -202 197 -104 35 -125 45 -136 68 -11 23 -10 32 2 56 22 43 39 52 95 53 74 2 116 -23 148 -88 37 -77 53 -70 53 22 0 73 -1 76 -27 86 -30 12 -215 21 -248 13z m204 -36 c11 -10 14 -10 18 -1 8 22 28 -9 30 -47 2 -30 1 -32 -9 -15 -6 10 -25 32 -42 47 -17 15 -26 28 -20 28 5 0 16 -6 23 -12z m-237 -15 c-6 -3 -10 -9 -6 -14 3 -5 1 -9 -4 -9 -21 0 -19 26 2 27 11 0 15 -1 8 -4z m-39 -32 c-2 -10 4 -26 14 -36 10 -10 16 -20 13 -21 -3 -1 5 -14 17 -27 l22 -26 -21 -13 -20 -14 20 0 c11 0 19 3 16 7 -2 4 3 9 11 12 9 4 12 1 8 -9 -3 -7 0 -14 6 -14 6 0 11 5 11 11 0 8 4 8 13 1 7 -6 35 -16 62 -22 74 -17 106 -31 98 -43 -4 -6 0 -8 10 -4 10 3 17 2 17 -2 0 -5 -6 -11 -12 -14 -7 -3 -3 -4 8 -4 15 1 20 6 16 16 -5 14 -4 14 10 1 9 -8 14 -18 12 -21 -2 -4 5 -14 16 -24 11 -10 20 -25 20 -34 -1 -11 -5 -8 -15 9 -8 14 -14 21 -14 15 0 -5 6 -21 14 -35 19 -34 18 -59 -2 -83 -10 -11 -12 -17 -5 -13 6 4 12 2 12 -3 0 -6 -9 -11 -19 -11 -10 0 -22 -7 -25 -16 -10 -26 -6 -30 9 -10 8 11 15 15 15 9 0 -17 -49 -65 -60 -58 -6 3 -10 0 -10 -7 0 -8 -5 -6 -11 5 -7 11 -7 23 -1 30 7 10 9 46 3 79 0 5 -19 26 -40 48 -28 29 -44 38 -57 34 -14 -4 -16 -3 -5 4 8 6 9 12 3 16 -6 3 -13 2 -17 -4 -10 -16 -28 -12 -21 5 3 8 1 15 -4 15 -6 0 -10 -4 -10 -9 0 -4 -12 -6 -27 -3 l-28 5 30 9 c17 4 41 6 55 3 21 -5 22 -4 7 6 -13 7 -32 7 -69 0 -28 -6 -53 -9 -56 -6 -3 3 2 5 12 5 9 0 15 4 12 9 -3 4 -17 7 -31 6 -16 -2 -25 2 -25 11 0 8 -5 14 -11 14 -5 0 -15 13 -20 30 -6 16 -14 28 -17 26 -10 -6 -9 81 1 90 4 4 7 16 7 26 0 10 4 18 10 18 5 0 8 -6 7 -12 -2 -7 1 -3 7 10 5 12 14 22 19 22 4 0 5 5 1 12 -4 6 -3 8 4 5 5 -4 8 -15 5 -26z m27 -11 c0 -5 -4 -10 -10 -10 -5 0 -10 5 -10 10 0 6 5 10 10 10 6 0 10 -4 10 -10z m-56 -430 c8 -17 10 -28 5 -25 -5 4 -9 1 -9 -4 0 -6 11 -11 24 -11 13 0 30 -8 37 -17 11 -15 11 -16 -1 -5 -8 6 -26 12 -42 12 -15 0 -32 8 -38 18 -11 16 -11 16 -6 0 3 -10 1 -18 -4 -18 -6 0 -10 4 -10 9 0 11 21 71 25 71 2 0 10 -14 19 -30z"/> <path d="M8588 1983 c7 -3 16 -2 19 1 4 3 -2 6 -13 5 -11 0 -14 -3 -6 -6z"/> <path d="M8280 1921 c0 -6 4 -13 10 -16 6 -3 7 1 4 9 -7 18 -14 21 -14 7z"/> <path d="M8237 1903 c-4 -3 -7 -13 -7 -22 1 -13 3 -13 11 2 11 19 8 33 -4 20z"/> <path d="M8498 1783 c6 -2 18 -2 25 0 6 3 1 5 -13 5 -14 0 -19 -2 -12 -5z"/> <path d="M8488 1763 c7 -3 16 -2 19 1 4 3 -2 6 -13 5 -11 0 -14 -3 -6 -6z"/> <path d="M8528 1743 c7 -3 16 -2 19 1 4 3 -2 6 -13 5 -11 0 -14 -3 -6 -6z"/> <path d="M8516 1648 c4 -5 13 -7 21 -4 11 5 13 2 9 -9 -3 -10 -2 -13 5 -10 16 11 5 28 -19 30 -11 1 -19 -2 -16 -7z"/> <path d="M8559 1595 c23 -44 27 -47 42 -29 12 15 12 16 0 9 -9 -5 -20 0 -33 16 -14 17 -16 18 -9 4z"/> <path d="M8572 1510 c0 -14 2 -19 5 -12 2 6 2 18 0 25 -3 6 -5 1 -5 -13z"/> <path d="M1930 2030 c-9 -6 -10 -10 -3 -10 6 0 15 5 18 10 8 12 4 12 -15 0z"/> <path d="M4861 2024 c0 -11 3 -14 6 -6 3 7 2 16 -1 19 -3 4 -6 -2 -5 -13z"/> <path d="M6385 2030 c3 -5 8 -10 11 -10 2 0 4 5 4 10 0 6 -5 10 -11 10 -5 0 -7 -4 -4 -10z"/> <path d="M7615 2017 c-15 -12 -16 -15 -4 -22 8 -5 11 -5 7 0 -4 4 0 14 10 21 23 18 11 18 -13 1z"/> <path d="M8711 1994 c0 -11 3 -14 6 -6 3 7 2 16 -1 19 -3 4 -6 -2 -5 -13z"/> <path d="M5837 1979 c7 -7 15 -10 18 -7 3 3 -2 9 -12 12 -14 6 -15 5 -6 -5z"/> <path d="M3156 1967 c3 -10 9 -15 12 -12 3 3 0 11 -7 18 -10 9 -11 8 -5 -6z"/> <path d="M3753 1940 c0 -25 2 -35 4 -22 2 12 2 32 0 45 -2 12 -4 2 -4 -23z"/> <path d="M4531 1964 c0 -11 3 -14 6 -6 3 7 2 16 -1 19 -3 4 -6 -2 -5 -13z"/> <path d="M7423 1940 c0 -25 2 -35 4 -22 2 12 2 32 0 45 -2 12 -4 2 -4 -23z"/> <path d="M7524 1958 c0 -17 2 -17 11 -4 8 10 16 12 23 6 9 -7 9 -7 2 2 -16 19 -36 17 -36 -4z"/> <path d="M8165 1969 c-4 -6 -5 -12 -2 -15 2 -3 7 2 10 11 7 17 1 20 -8 4z"/> <path d="M2556 1962 c-3 -5 1 -9 9 -9 8 0 12 4 9 9 -3 4 -7 8 -9 8 -2 0 -6 -4 -9 -8z"/> <path d="M3950 1965 c0 -5 5 -17 10 -25 5 -8 10 -10 10 -5 0 6 -5 17 -10 25 -5 8 -10 11 -10 5z"/> <path d="M5851 1944 c0 -11 3 -14 6 -6 3 7 2 16 -1 19 -3 4 -6 -2 -5 -13z"/> <path d="M3183 1935 c-3 -9 -3 -18 -1 -21 3 -3 8 4 11 16 6 23 -1 27 -10 5z"/> <path d="M3936 1937 c3 -10 9 -15 12 -12 3 3 0 11 -7 18 -10 9 -11 8 -5 -6z"/> <path d="M1938 1913 c7 -3 16 -2 19 1 4 3 -2 6 -13 5 -11 0 -14 -3 -6 -6z"/> <path d="M4556 1911 c8 -8 44 -8 44 1 0 4 -11 7 -25 6 -13 -1 -22 -4 -19 -7z"/> <path d="M1265 1899 c-4 -6 -5 -12 -2 -15 2 -3 7 2 10 11 7 17 1 20 -8 4z"/> <path d="M2496 1897 c3 -10 9 -15 12 -12 3 3 0 11 -7 18 -10 9 -11 8 -5 -6z"/> <path d="M655 1889 c-4 -6 -5 -12 -2 -15 2 -3 7 2 10 11 7 17 1 20 -8 4z"/> <path d="M6501 1864 c0 -11 3 -14 6 -6 3 7 2 16 -1 19 -3 4 -6 -2 -5 -13z"/> <path d="M8141 1854 c0 -11 3 -14 6 -6 3 7 2 16 -1 19 -3 4 -6 -2 -5 -13z"/> <path d="M8528 1863 c6 -2 18 -2 25 0 6 3 1 5 -13 5 -14 0 -19 -2 -12 -5z"/> <path d="M2395 1850 c-10 -15 25 -24 38 -10 10 10 7 11 -12 5 -16 -5 -21 -4 -17 4 4 6 5 11 2 11 -3 0 -8 -5 -11 -10z"/> <path d="M7075 1851 c4 -8 2 -17 -6 -22 -9 -6 -10 -9 -2 -9 19 0 27 21 13 33 -10 9 -11 9 -5 -2z"/> <path d="M650 1841 c0 -6 4 -13 10 -16 6 -3 7 1 4 9 -7 18 -14 21 -14 7z"/> <path d="M2330 1840 c-8 -5 -10 -10 -5 -10 6 0 17 5 25 10 8 5 11 10 5 10 -5 0 -17 -5 -25 -10z"/> <path d="M5866 1841 c-3 -5 1 -11 9 -14 9 -4 12 -1 8 9 -6 16 -10 17 -17 5z"/> <path d="M6910 1841 c0 -10 19 -25 25 -20 1 2 -3 10 -11 17 -8 7 -14 8 -14 3z"/> <path d="M6947 1839 c7 -7 15 -10 18 -7 3 3 -2 9 -12 12 -14 6 -15 5 -6 -5z"/> <path d="M6045 1830 c-3 -6 1 -7 9 -4 18 7 21 14 7 14 -6 0 -13 -4 -16 -10z"/> <path d="M8641 1824 c0 -11 3 -14 6 -6 3 7 2 16 -1 19 -3 4 -6 -2 -5 -13z"/> <path d="M1603 1780 c0 -25 2 -35 4 -22 2 12 2 32 0 45 -2 12 -4 2 -4 -23z"/> <path d="M3753 1780 c0 -25 2 -35 4 -22 2 12 2 32 0 45 -2 12 -4 2 -4 -23z"/> <path d="M6018 1803 c7 -3 16 -2 19 1 4 3 -2 6 -13 5 -11 0 -14 -3 -6 -6z"/> <path d="M8678 1792 c9 -10 19 -17 21 -16 6 5 -20 34 -30 34 -5 0 -1 -8 9 -18z"/> <path d="M5849 1733 c0 -5 -2 -18 -3 -30 -1 -12 1 -20 4 -18 8 5 11 55 4 55 -2 0 -4 -3 -5 -7z"/> <path d="M5876 1723 c-6 -14 -5 -15 5 -6 7 7 10 15 7 18 -3 3 -9 -2 -12 -12z"/> <path d="M7423 1700 c0 -25 2 -35 4 -22 2 12 2 32 0 45 -2 12 -4 2 -4 -23z"/> <path d="M8276 1672 c-2 -4 0 -14 6 -22 8 -12 9 -11 4 4 -5 14 -2 17 9 12 9 -3 13 -2 10 4 -7 12 -22 13 -29 2z"/> <path d="M1345 1649 c-4 -6 -5 -12 -2 -15 2 -3 7 2 10 11 7 17 1 20 -8 4z"/> <path d="M4460 1652 c0 -13 47 -28 57 -18 4 3 -3 6 -13 6 -11 0 -25 5 -32 12 -9 9 -12 9 -12 0z"/> <path d="M5672 1640 c0 -14 2 -19 5 -12 2 6 2 18 0 25 -3 6 -5 1 -5 -13z"/> <path d="M6750 1646 c7 -7 13 -7 20 0 6 6 3 10 -10 10 -13 0 -16 -4 -10 -10z"/> <path d="M8077 1639 c7 -7 15 -10 18 -7 3 3 -2 9 -12 12 -14 6 -15 5 -6 -5z"/> <path d="M8140 1646 c0 -2 9 -6 20 -9 11 -3 20 -1 20 4 0 5 -9 9 -20 9 -11 0 -20 -2 -20 -4z"/> <path d="M4422 1624 c-7 -8 -8 -14 -3 -14 10 0 25 19 20 25 -2 1 -10 -3 -17 -11z"/> <path d="M1051 1604 c0 -11 3 -14 6 -6 3 7 2 16 -1 19 -3 4 -6 -2 -5 -13z"/> <path d="M4449 1603 c-13 -17 -13 -17 6 -3 11 8 22 16 24 17 2 2 0 3 -6 3 -6 0 -17 -8 -24 -17z"/> <path d="M8410 1610 c-9 -6 -10 -10 -3 -10 6 0 15 5 18 10 8 12 4 12 -15 0z"/> <path d="M8460 1590 c-9 -6 -10 -10 -3 -10 6 0 15 5 18 10 8 12 4 12 -15 0z"/> <path d="M8004 1582 c3 -5 0 -13 -6 -15 -9 -4 -10 -6 -1 -6 17 -1 25 16 12 25 -7 4 -9 3 -5 -4z"/> <path d="M8301 1577 c-8 -10 -7 -14 2 -14 8 0 14 6 14 14 0 7 -1 13 -2 13 -2 0 -8 -6 -14 -13z"/> <path d="M485 1569 c-4 -6 -5 -12 -2 -15 2 -3 7 2 10 11 7 17 1 20 -8 4z"/> <path d="M537 1556 c20 -26 27 -28 17 -3 -3 8 -12 18 -20 21 -11 4 -10 0 3 -18z"/> <path d="M4208 1573 c6 -2 10 -9 7 -14 -4 -5 1 -6 10 -2 13 5 14 7 3 14 -7 5 -17 8 -23 8 -5 0 -4 -3 3 -6z"/> <path d="M4534 1553 c-2 -27 -1 -27 14 3 8 15 8 21 -1 21 -7 0 -13 -11 -13 -24z"/> <path d="M6461 1564 c0 -11 3 -14 6 -6 3 7 2 16 -1 19 -3 4 -6 -2 -5 -13z"/> <path d="M6860 1570 c-12 -7 -10 -9 7 -7 12 0 19 5 17 9 -6 10 -6 10 -24 -2z"/> <path d="M1380 1560 c8 -5 20 -10 25 -10 6 0 3 5 -5 10 -8 5 -19 10 -25 10 -5 0 -3 -5 5 -10z"/> <path d="M8696 1553 c-6 -14 -5 -15 5 -6 7 7 10 15 7 18 -3 3 -9 -2 -12 -12z"/> <path d="M1051 1544 c0 -11 3 -14 6 -6 3 7 2 16 -1 19 -3 4 -6 -2 -5 -13z"/> <path d="M5738 1553 c7 -3 16 -2 19 1 4 3 -2 6 -13 5 -11 0 -14 -3 -6 -6z"/> <path d="M6531 1544 c0 -11 3 -14 6 -6 3 7 2 16 -1 19 -3 4 -6 -2 -5 -13z"/> <path d="M6908 1553 c7 -3 16 -2 19 1 4 3 -2 6 -13 5 -11 0 -14 -3 -6 -6z"/> <path d="M7900 1556 c0 -2 7 -7 16 -10 8 -3 12 -2 9 4 -6 10 -25 14 -25 6z"/> <path d="M7948 1553 c7 -3 16 -2 19 1 4 3 -2 6 -13 5 -11 0 -14 -3 -6 -6z"/> <path d="M515 1540 c3 -5 8 -10 11 -10 2 0 4 5 4 10 0 6 -5 10 -11 10 -5 0 -7 -4 -4 -10z"/> <path d="M1425 1540 c3 -5 8 -10 11 -10 2 0 4 5 4 10 0 6 -5 10 -11 10 -5 0 -7 -4 -4 -10z"/> <path d="M3446 1537 c3 -10 9 -15 12 -12 3 3 0 11 -7 18 -10 9 -11 8 -5 -6z"/> <path d="M7416 1525 c4 -8 11 -15 16 -15 6 0 5 6 -2 15 -7 8 -14 15 -16 15 -2 0 -1 -7 2 -15z"/> <path d="M8104 1520 c0 -13 4 -16 10 -10 7 7 7 13 0 20 -6 6 -10 3 -10 -10z"/> <path d="M4505 1510 c-3 -6 1 -7 9 -4 18 7 21 14 7 14 -6 0 -13 -4 -16 -10z"/> <path d="M7110 1511 c0 -6 4 -13 10 -16 6 -3 7 1 4 9 -7 18 -14 21 -14 7z"/> <path d="M1580 1498 c0 -17 36 -35 47 -24 4 3 -1 6 -10 6 -9 0 -21 8 -26 18 -9 15 -10 16 -11 0z"/> <path d="M2550 1504 c0 -1 8 -8 17 -15 9 -8 14 -9 10 -2 -4 6 -1 13 5 16 7 3 3 4 -9 4 -13 -1 -23 -2 -23 -3z"/> <path d="M6531 1503 c-1 -17 16 -25 25 -12 4 7 3 9 -4 5 -5 -3 -13 0 -15 6 -4 9 -6 10 -6 1z"/> <path d="M4960 1490 c10 -6 10 -8 -1 -12 -9 -3 -7 -7 6 -12 11 -4 16 -4 12 0 -4 4 0 12 8 18 13 9 11 11 -11 13 -17 0 -22 -2 -14 -7z"/> <path d="M411 1464 c0 -11 3 -14 6 -6 3 7 2 16 -1 19 -3 4 -6 -2 -5 -13z"/> <path d="M5446 1471 c-4 -5 -2 -12 3 -15 5 -4 12 -2 15 3 4 5 2 12 -3 15 -5 4 -12 2 -15 -3z"/> <path d="M6590 1472 c0 -4 10 -13 23 -21 22 -14 22 -14 3 8 -20 22 -26 25 -26 13z"/> <path d="M7033 1453 c-25 -25 -18 -30 11 -8 10 7 16 17 15 22 -2 4 -14 -2 -26 -14z"/> <path d="M5835 1457 c10 -8 15 -18 12 -24 -4 -6 9 -10 33 -10 22 0 37 4 34 8 -2 5 -12 5 -21 2 -12 -5 -14 -3 -8 8 7 12 6 12 -7 1 -14 -11 -17 -10 -23 7 -3 12 -14 21 -23 21 -13 0 -13 -2 3 -13z"/> <path d="M6545 1459 c-11 -16 -1 -19 13 -3 7 8 8 14 3 14 -5 0 -13 -5 -16 -11z"/> <path d="M7603 1455 c0 -8 3 -14 6 -13 3 0 13 0 21 -1 13 -1 13 -2 0 -11 -9 -6 -10 -10 -3 -10 23 0 23 18 0 33 -19 12 -24 13 -24 2z"/> <path d="M1888 1453 c7 -3 16 -2 19 1 4 3 -2 6 -13 5 -11 0 -14 -3 -6 -6z"/> <path d="M2560 1451 c0 -10 19 -25 25 -20 1 2 -3 10 -11 17 -8 7 -14 8 -14 3z"/> <path d="M3081 1451 c-10 -7 -7 -9 12 -8 14 1 23 5 20 10 -6 9 -15 9 -32 -2z"/> <path d="M6226 1437 c3 -10 9 -15 12 -12 3 3 0 11 -7 18 -10 9 -11 8 -5 -6z"/> <path d="M4405 1430 c-3 -6 1 -7 9 -4 18 7 21 14 7 14 -6 0 -13 -4 -16 -10z"/> <path d="M4450 1430 c-8 -5 -10 -10 -5 -10 6 0 17 5 25 10 8 5 11 10 5 10 -5 0 -17 -5 -25 -10z"/> <path d="M6590 1429 c0 -5 5 -7 10 -4 6 3 10 8 10 11 0 2 -4 4 -10 4 -5 0 -10 -5 -10 -11z"/> <path d="M8630 1430 c8 -5 20 -10 25 -10 6 0 3 5 -5 10 -8 5 -19 10 -25 10 -5 0 -3 -5 5 -10z"/> <path d="M6008 1383 c7 -3 16 -2 19 1 4 3 -2 6 -13 5 -11 0 -14 -3 -6 -6z"/> <path d="M5658 1363 c7 -3 16 -2 19 1 4 3 -2 6 -13 5 -11 0 -14 -3 -6 -6z"/> <path d="M7828 1363 c6 -2 18 -2 25 0 6 3 1 5 -13 5 -14 0 -19 -2 -12 -5z"/> <path d="M5628 1343 c7 -3 16 -2 19 1 4 3 -2 6 -13 5 -11 0 -14 -3 -6 -6z"/> <path d="M7848 1343 c7 -3 16 -2 19 1 4 3 -2 6 -13 5 -11 0 -14 -3 -6 -6z"/> <path d="M965 921 c1 -9 10 -17 21 -18 17 -2 17 -1 -1 4 -20 6 -20 6 -1 13 19 6 19 7 -1 12 -15 4 -20 1 -18 -11z"/> <path d="M3110 930 c-9 -6 -10 -10 -3 -10 6 0 15 5 18 10 8 12 4 12 -15 0z"/> <path d="M5570 925 c0 -8 2 -15 4 -15 2 0 6 7 10 15 3 8 1 15 -4 15 -6 0 -10 -7 -10 -15z"/> <path d="M7310 935 c0 -2 6 -8 13 -14 10 -8 14 -7 14 2 0 8 -6 14 -14 14 -7 0 -13 -1 -13 -2z"/> <path d="M7378 933 c7 -3 16 -2 19 1 4 3 -2 6 -13 5 -11 0 -14 -3 -6 -6z"/> <path d="M7951 929 c17 -11 39 -12 39 -1 0 4 -12 8 -27 9 -19 1 -22 -1 -12 -8z"/> <path d="M3185 920 c-3 -5 -1 -10 4 -10 6 0 11 5 11 10 0 6 -2 10 -4 10 -3 0 -8 -4 -11 -10z"/> <path d="M3798 923 c7 -3 16 -2 19 1 4 3 -2 6 -13 5 -11 0 -14 -3 -6 -6z"/> <path d="M3901 904 c0 -11 3 -14 6 -6 3 7 2 16 -1 19 -3 4 -6 -2 -5 -13z"/> <path d="M4566 907 c3 -10 9 -15 12 -12 3 3 0 11 -7 18 -10 9 -11 8 -5 -6z"/> <path d="M5398 913 c7 -3 16 -2 19 1 4 3 -2 6 -13 5 -11 0 -14 -3 -6 -6z"/> <path d="M7008 913 c7 -3 16 -2 19 1 4 3 -2 6 -13 5 -11 0 -14 -3 -6 -6z"/> <path d="M7400 915 c0 -5 5 -17 10 -25 5 -8 10 -10 10 -5 0 6 -5 17 -10 25 -5 8 -10 11 -10 5z"/> <path d="M3066 895 c-11 -8 -18 -17 -15 -19 2 -2 15 4 28 15 27 22 15 26 -13 4z"/> <path d="M5640 895 c-7 -9 -11 -17 -9 -20 3 -2 10 5 17 15 14 24 10 26 -8 5z"/> <path d="M3135 893 c-45 -10 -51 -15 -27 -24 19 -7 22 -16 22 -64 0 -52 -1 -55 -19 -45 -83 44 -178 -49 -152 -147 6 -22 20 -48 30 -57 25 -23 84 -23 118 -1 25 17 26 17 21 -1 -4 -17 0 -19 39 -15 42 3 62 21 23 21 -19 0 -20 7 -20 170 0 94 -3 169 -7 169 -5 -1 -17 -3 -28 -6z m-35 -148 c29 -15 30 -18 30 -85 0 -60 -3 -71 -22 -84 -32 -22 -55 -20 -83 9 -19 19 -25 35 -25 70 0 64 20 94 68 104 2 1 16 -6 32 -14z"/> <path d="M3050 720 c0 -5 5 -10 11 -10 5 0 7 5 4 10 -3 6 -8 10 -11 10 -2 0 -4 -4 -4 -10z"/> <path d="M3810 893 c-47 -8 -57 -15 -30 -22 l25 -7 0 -154 0 -154 -25 -7 c-16 -4 1 -7 45 -7 51 -1 64 2 48 8 -23 9 -23 12 -23 180 0 93 -3 169 -7 169 -5 -1 -19 -4 -33 -6z"/> <path d="M5440 892 c-47 -6 -57 -13 -32 -23 22 -8 22 -10 20 -161 -2 -108 -6 -153 -15 -153 -6 0 -15 -3 -19 -7 -4 -5 22 -8 57 -7 54 0 60 2 41 11 -22 11 -23 14 -21 175 0 91 -1 165 -3 167 -1 1 -14 0 -28 -2z"/> <path d="M5693 893 c-35 -4 -43 -17 -18 -27 12 -4 15 -33 15 -167 0 -146 2 -161 17 -155 9 4 32 1 51 -5 45 -15 104 2 126 36 25 39 31 106 12 143 -29 56 -83 68 -143 30 l-35 -21 11 21 c12 23 15 153 4 150 -5 0 -23 -3 -40 -5z m144 -165 c35 -28 33 -139 -3 -165 -20 -15 -62 -17 -82 -4 -15 9 -28 107 -19 143 11 42 67 56 104 26z"/> <path d="M7025 891 c-33 -14 -47 -37 -48 -81 -2 -38 -7 -44 -34 -41 -7 1 -13 -3 -13 -9 0 -5 9 -10 20 -10 19 0 20 -7 20 -93 0 -88 -2 -95 -22 -105 -19 -9 -11 -11 45 -11 41 -1 67 3 67 10 0 5 -4 8 -9 5 -5 -4 -16 -3 -25 0 -13 5 -16 23 -16 100 l0 94 30 0 c17 0 30 4 30 8 0 5 -13 7 -30 4 -30 -4 -30 -4 -30 46 0 32 5 54 15 62 18 15 45 6 45 -14 0 -22 29 -27 40 -7 7 13 6 22 -3 29 -19 16 -60 22 -82 13z"/> <path d="M1027 875 c-74 -26 -117 -85 -119 -163 -1 -54 23 -114 59 -142 41 -32 119 -44 183 -28 l55 13 6 48 c3 27 1 50 -3 53 -4 3 -8 -2 -8 -10 0 -56 -60 -101 -121 -93 -62 8 -86 30 -104 92 -39 133 30 241 140 221 33 -6 75 -49 75 -75 0 -6 5 -11 11 -11 7 0 9 9 5 23 -3 12 -6 31 -6 43 0 17 -10 23 -51 32 -63 15 -74 15 -122 -3z m-78 -199 c-3 -3 -11 5 -18 17 -13 21 -12 21 5 5 10 -10 16 -20 13 -22z m11 -56 c6 -11 8 -20 6 -20 -3 0 -10 9 -16 20 -6 11 -8 20 -6 20 3 0 10 -9 16 -20z"/> <path d="M4581 855 c-13 -20 -21 -38 -17 -42 7 -7 76 56 76 69 0 21 -38 4 -59 -27z"/> <path d="M5294 876 c-9 -24 4 -48 23 -44 12 2 18 12 18 28 0 29 -32 41 -41 16z"/> <path d="M5567 883 c-14 -14 -6 -41 14 -46 22 -6 35 13 25 38 -6 15 -28 20 -39 8z"/> <path d="M7313 874 c-4 -11 1 -22 12 -31 16 -11 21 -11 34 1 12 12 12 18 1 30 -16 21 -39 20 -47 0z"/> <path d="M7930 880 c-12 -7 -12 -13 -4 -27 6 -10 17 -18 24 -18 7 0 18 8 24 18 8 14 8 20 -4 27 -8 5 -17 10 -20 10 -3 0 -12 -5 -20 -10z"/> <path d="M7391 854 c0 -11 3 -14 6 -6 3 7 2 16 -1 19 -3 4 -6 -2 -5 -13z"/> <path d="M7425 859 c-4 -6 -5 -12 -2 -15 2 -3 7 2 10 11 7 17 1 20 -8 4z"/> <path d="M4617 813 c5 -12 3 -14 -7 -8 -8 5 -11 4 -6 -3 7 -12 36 -5 36 8 0 4 -7 10 -14 13 -11 4 -13 1 -9 -10z"/> <path d="M5325 809 c-4 -6 -5 -12 -2 -15 2 -3 7 2 10 11 7 17 1 20 -8 4z"/> <path d="M5610 809 c0 -5 5 -7 10 -4 6 3 10 8 10 11 0 2 -4 4 -10 4 -5 0 -10 -5 -10 -11z"/> <path d="M5530 799 c0 -5 5 -7 10 -4 6 3 10 8 10 11 0 2 -4 4 -10 4 -5 0 -10 -5 -10 -11z"/> <path d="M1000 790 c0 -5 5 -10 11 -10 5 0 7 5 4 10 -3 6 -8 10 -11 10 -2 0 -4 -4 -4 -10z"/> <path d="M1123 783 c-3 -8 -3 -17 1 -20 3 -4 6 1 6 11 0 9 4 15 9 11 5 -3 12 -2 15 3 3 5 -2 9 -10 9 -9 0 -18 -7 -21 -14z"/> <path d="M1252 780 c0 -14 2 -19 5 -12 2 6 2 18 0 25 -3 6 -5 1 -5 -13z"/> <path d="M2976 765 c-11 -8 -15 -15 -9 -15 6 0 16 7 23 15 16 19 11 19 -14 0z"/> <path d="M4106 768 c3 -5 10 -6 15 -3 13 9 11 12 -6 12 -8 0 -12 -4 -9 -9z"/> <path d="M6353 773 c-7 -3 -13 -9 -13 -15 0 -6 7 -4 17 3 15 12 16 12 9 -6 -6 -16 -5 -18 5 -7 15 14 1 32 -18 25z"/> <path d="M1324 761 c-53 -23 -81 -111 -52 -164 17 -32 30 -43 70 -56 45 -15 80 -6 118 29 26 24 30 35 30 82 0 47 -4 58 -29 82 -32 31 -98 43 -137 27z m93 -25 c25 -21 28 -31 28 -84 0 -45 -5 -66 -19 -81 -21 -23 -64 -27 -89 -8 -41 30 -37 164 6 185 33 16 43 14 74 -12z"/> <path d="M1360 716 c0 -2 7 -7 16 -10 8 -3 12 -2 9 4 -6 10 -25 14 -25 6z"/> <path d="M1360 616 c0 -2 7 -9 15 -16 9 -7 15 -8 15 -2 0 5 -7 12 -15 16 -8 3 -15 4 -15 2z"/> <path d="M1565 763 c-11 -2 -27 -7 -35 -10 -8 -3 -19 -5 -23 -4 -5 1 -6 -3 -3 -7 3 -5 17 -7 31 -4 l25 4 0 -91 c0 -86 -1 -92 -22 -101 -17 -6 -7 -9 42 -9 49 0 59 3 43 9 -21 9 -23 16 -23 84 0 66 3 77 22 90 29 21 74 21 82 0 3 -9 6 -48 6 -88 0 -66 -2 -74 -22 -84 -19 -9 -12 -11 42 -11 49 0 59 3 43 9 -21 9 -23 16 -23 84 0 66 3 77 22 90 29 21 74 21 82 0 3 -9 6 -49 6 -90 0 -68 -2 -75 -22 -84 -18 -7 -7 -9 42 -9 62 -1 63 0 42 15 -21 14 -23 23 -21 92 0 42 -2 85 -6 94 -11 29 -69 33 -115 9 -32 -17 -40 -18 -40 -6 0 32 -86 30 -122 -2 -17 -15 -18 -14 -18 5 0 12 -3 21 -7 21 -5 -1 -17 -3 -28 -6z"/> <path d="M1990 763 c-34 -6 -50 -23 -22 -23 22 0 22 -2 22 -145 0 -140 -1 -145 -21 -145 -11 0 -18 -3 -16 -7 4 -7 111 -9 127 -3 3 1 -6 5 -20 9 -22 6 -25 13 -28 55 -3 46 -2 47 20 40 64 -23 122 6 145 71 38 107 -70 199 -150 128 -19 -18 -19 -17 -13 5 8 23 6 24 -44 15z m159 -59 c21 -48 10 -125 -23 -146 -20 -14 -56 -8 -76 12 -16 16 -20 33 -20 85 0 60 2 65 27 78 35 19 76 5 92 -29z"/> <path d="M2086 703 c-6 -14 -5 -15 5 -6 7 7 10 15 7 18 -3 3 -9 -2 -12 -12z"/> <path d="M2101 674 c0 -11 3 -14 6 -6 3 7 2 16 -1 19 -3 4 -6 -2 -5 -13z"/> <path d="M2067 596 c-4 -10 -1 -13 8 -9 8 3 12 9 9 14 -7 12 -11 11 -17 -5z"/> <path d="M2188 763 c7 -3 16 -2 19 1 4 3 -2 6 -13 5 -11 0 -14 -3 -6 -6z"/> <path d="M2270 763 c-34 -6 -50 -23 -22 -23 21 0 22 -4 22 -90 0 -85 -1 -91 -22 -100 -17 -6 -2 -9 52 -8 41 0 66 3 55 5 -38 9 -45 24 -45 87 0 55 3 66 26 87 18 16 28 20 31 12 3 -7 14 -13 25 -13 14 0 19 6 16 23 -4 30 -51 27 -79 -5 l-20 -23 4 28 c3 16 0 26 -7 26 -6 -1 -22 -4 -36 -6z"/> <path d="M2478 750 c-56 -44 -63 -144 -13 -187 37 -32 104 -31 142 1 15 13 25 28 20 32 -4 4 -13 1 -20 -8 -32 -41 -100 -26 -122 27 -25 58 -23 60 65 59 86 -2 91 2 69 49 -22 47 -97 62 -141 27z m92 -10 c37 -37 26 -50 -39 -50 -35 0 -63 5 -67 12 -4 7 -3 8 4 4 7 -4 12 -2 12 3 0 16 38 51 55 51 8 0 24 -9 35 -20z"/> <path d="M2693 763 c-32 -4 -47 -23 -19 -23 20 0 26 -23 26 -98 0 -70 -5 -85 -30 -95 -8 -3 14 -5 50 -6 49 0 59 3 43 9 -21 9 -23 16 -23 86 0 61 4 79 18 90 23 18 67 18 81 0 16 -19 11 -171 -6 -171 -6 0 -15 -3 -19 -7 -4 -5 24 -8 62 -7 44 1 60 3 44 8 -24 6 -25 11 -30 97 -3 56 -10 97 -19 108 -20 24 -72 20 -111 -9 -18 -13 -37 -22 -41 -19 -13 8 -11 14 3 12 6 -2 14 5 16 15 2 9 0 16 -5 15 -4 0 -23 -3 -40 -5z"/> <path d="M2941 754 c0 -11 3 -14 6 -6 3 7 2 16 -1 19 -3 4 -6 -2 -5 -13z"/> <path d="M3258 763 c-29 -4 -39 -23 -13 -23 12 0 15 -14 16 -62 2 -92 -1 -111 -19 -125 -14 -10 -6 -12 48 -12 46 0 59 3 44 9 -26 10 -31 29 -29 97 2 64 26 98 57 82 24 -13 48 -5 48 15 0 27 -48 31 -74 7 -28 -26 -36 -27 -29 -1 6 21 4 21 -49 13z"/> <path d="M3467 749 c-39 -30 -54 -88 -37 -140 17 -50 47 -72 101 -71 31 1 49 8 70 28 30 29 32 48 2 22 -18 -16 -39 -21 -80 -19 -25 1 -48 31 -57 76 l-6 30 80 -2 c89 -2 95 4 63 57 -26 45 -92 54 -136 19z m104 -26 c5 -13 9 -26 9 -29 0 -2 -27 -4 -60 -4 l-61 0 16 29 c23 46 79 48 96 4z"/> <path d="M3969 755 c-34 -18 -63 -88 -55 -131 10 -51 48 -84 96 -84 48 0 100 24 100 46 0 11 -6 10 -29 -7 -51 -38 -109 -7 -124 66 l-6 30 77 -2 c42 -1 80 1 84 3 12 8 -13 63 -35 79 -27 19 -74 19 -108 0z m87 -16 c8 -6 14 -20 14 -30 0 -17 -8 -19 -60 -19 -60 0 -61 0 -49 23 24 44 61 54 95 26z"/> <path d="M4180 750 c-15 -15 -20 -31 -18 -53 3 -28 10 -35 61 -59 47 -23 57 -32 57 -53 0 -46 -81 -46 -102 1 -13 29 -27 14 -21 -21 4 -17 13 -24 43 -29 53 -8 96 9 111 46 17 40 6 56 -64 93 -62 33 -73 58 -33 76 29 13 61 -1 71 -31 10 -32 21 -23 17 13 -3 31 -6 32 -52 35 -39 2 -53 -1 -70 -18z"/> <path d="M4523 748 c-41 -29 -56 -78 -42 -134 23 -89 122 -102 197 -27 20 19 4 16 -34 -8 -24 -15 -42 -19 -63 -14 -36 8 -51 24 -61 70 l-8 35 62 2 c33 0 71 0 84 -1 26 -2 26 -1 8 44 -25 58 -86 73 -143 33z m95 -16 c25 -32 15 -42 -44 -42 -53 0 -55 1 -48 22 15 47 62 57 92 20z m-87 -159 c13 -16 12 -17 -3 -4 -10 7 -18 15 -18 17 0 8 8 3 21 -13z"/> <path d="M4762 754 c-65 -45 -69 -171 -6 -205 28 -15 76 -14 105 2 18 9 19 6 19 -46 0 -53 -1 -55 -27 -55 -14 0 -24 -3 -20 -6 3 -3 30 -6 59 -6 72 1 77 2 50 13 -23 9 -23 10 -20 164 2 115 0 155 -9 155 -6 0 -15 -5 -18 -10 -4 -7 -12 -7 -25 0 -28 15 -83 12 -108 -6z m106 -16 c7 -7 12 -42 12 -85 0 -68 -2 -74 -24 -84 -34 -16 -70 -4 -87 27 -19 37 -16 109 6 134 20 22 74 27 93 8z"/> <path d="M4806 717 c3 -10 9 -15 12 -12 3 3 0 11 -7 18 -10 9 -11 8 -5 -6z"/> <path d="M4830 610 c-9 -6 -10 -10 -3 -10 6 0 15 5 18 10 8 12 4 12 -15 0z"/> <path d="M4963 757 c-3 -5 4 -11 16 -14 26 -7 33 -29 30 -100 -4 -76 11 -103 57 -103 19 0 48 7 64 15 27 14 30 14 30 0 0 -11 10 -15 35 -15 19 0 35 5 35 10 0 6 -7 10 -15 10 -17 0 -17 1 -15 121 l1 85 -40 0 c-44 -1 -54 -11 -21 -21 18 -6 20 -15 20 -80 0 -72 -1 -75 -29 -90 -22 -11 -37 -12 -55 -5 -25 9 -26 12 -26 102 l0 93 -41 0 c-22 0 -43 -3 -46 -8z"/> <path d="M5290 763 c-34 -6 -50 -23 -23 -23 20 0 22 -6 25 -86 3 -80 -7 -116 -25 -97 -4 3 -7 1 -7 -5 0 -8 21 -12 63 -12 56 0 60 1 37 13 -24 12 -25 16 -25 115 0 62 -4 101 -10 101 -5 -1 -21 -4 -35 -6z"/> <path d="M5568 762 c-41 -3 -50 -16 -18 -25 18 -5 20 -14 20 -91 0 -80 -2 -87 -22 -96 -17 -6 -4 -9 47 -8 44 0 61 3 45 7 -24 7 -25 10 -30 111 l-5 105 -37 -3z"/> <path d="M5973 763 c-37 -5 -43 -18 -13 -26 18 -5 20 -14 20 -91 0 -79 -2 -86 -20 -86 -11 0 -20 -4 -20 -10 0 -6 27 -10 63 -9 47 0 57 2 40 9 -21 9 -23 16 -23 83 0 60 4 77 19 91 16 15 22 15 40 4 24 -15 47 1 38 26 -9 22 -50 20 -72 -4 -10 -11 -21 -20 -26 -20 -4 0 -5 9 -2 20 3 11 1 19 -3 18 -5 0 -24 -3 -41 -5z"/> <path d="M6195 759 c-82 -41 -82 -175 1 -214 42 -20 105 -6 128 27 22 31 13 34 -22 8 -51 -38 -122 0 -122 64 l0 31 75 -2 c72 -2 75 -1 75 21 0 35 -46 76 -84 75 -17 0 -40 -5 -51 -10z m75 -19 c37 -37 26 -50 -41 -50 -64 0 -66 3 -26 48 25 27 41 28 67 2z"/> <path d="M6399 749 c-14 -14 -19 -30 -17 -52 3 -28 10 -35 61 -60 47 -23 58 -32 55 -49 -7 -51 -80 -49 -102 3 -15 37 -23 30 -18 -15 4 -31 7 -34 44 -40 48 -8 103 15 112 47 11 44 -4 64 -65 91 -66 28 -77 54 -33 74 30 14 59 2 69 -28 9 -27 25 -16 17 13 -7 29 -20 37 -64 37 -25 0 -45 -7 -59 -21z"/> <path d="M6742 760 c-25 -11 -37 -33 -28 -55 7 -20 36 -8 36 16 0 10 9 23 20 29 28 15 60 -4 60 -35 0 -14 0 -28 1 -32 0 -4 -23 -15 -52 -25 -66 -23 -79 -34 -79 -69 0 -20 8 -34 25 -45 24 -16 29 -16 67 0 23 9 44 12 47 8 16 -23 90 -15 76 7 -3 6 -12 8 -20 4 -8 -3 -15 -1 -16 3 0 5 -2 45 -3 88 -3 69 -6 82 -26 98 -24 19 -70 23 -108 8z m93 -137 c-3 -46 -42 -76 -72 -57 -31 19 -22 57 17 76 51 25 57 23 55 -19z"/> <path d="M6790 610 c-9 -6 -10 -10 -3 -10 6 0 15 5 18 10 8 12 4 12 -15 0z"/> <path d="M7125 763 c-44 -9 -51 -16 -25 -22 22 -6 24 -13 28 -70 4 -75 -3 -111 -23 -111 -7 0 -17 -4 -20 -10 -4 -6 21 -10 67 -9 61 0 68 2 46 11 -27 9 -28 12 -28 82 0 62 3 76 21 92 16 14 23 15 26 7 6 -16 39 -17 48 -3 9 14 -13 40 -33 40 -9 0 -29 -12 -45 -27 l-29 -28 7 28 c7 28 4 30 -40 20z"/> <path d="M7313 763 c-37 -5 -43 -18 -13 -26 18 -5 20 -14 20 -91 0 -80 -2 -87 -22 -96 -17 -6 -7 -9 42 -9 49 0 59 3 43 9 -22 9 -23 15 -23 115 0 58 -3 104 -7 103 -5 0 -23 -3 -40 -5z"/> <path d="M7465 737 c-30 -30 -35 -42 -35 -82 0 -78 30 -114 94 -115 42 0 110 35 100 52 -3 5 -14 2 -25 -8 -25 -23 -73 -22 -99 1 -40 36 -37 133 5 161 28 18 60 6 70 -26 8 -24 33 -26 42 -4 9 24 -20 46 -71 51 -42 5 -48 3 -81 -30z"/> <path d="M7703 758 c-24 -11 -38 -41 -28 -57 9 -16 33 -2 39 24 12 48 70 38 78 -14 4 -27 1 -30 -56 -52 -70 -28 -95 -60 -72 -94 16 -24 75 -32 107 -15 13 7 24 8 28 3 10 -16 35 -21 59 -12 31 12 28 31 -3 23 l-25 -6 0 89 c0 74 -3 93 -18 106 -21 19 -75 21 -109 5z m91 -135 c-2 -41 -24 -63 -61 -63 -16 0 -24 7 -29 26 -7 29 -2 36 41 58 44 23 51 20 49 -21z"/> <path d="M7923 763 c-37 -5 -43 -18 -13 -26 18 -5 20 -14 20 -90 0 -77 -2 -85 -22 -95 -19 -9 -12 -11 42 -11 65 -1 65 0 41 18 -22 17 -23 23 -20 114 3 61 0 96 -6 95 -5 0 -25 -3 -42 -5z"/> <path d="M8058 763 c-33 -5 -37 -18 -8 -26 18 -5 20 -14 20 -90 0 -77 -2 -85 -22 -95 -19 -9 -12 -11 42 -11 49 0 59 3 43 9 -21 9 -23 16 -23 86 0 84 11 103 61 104 41 0 50 -20 47 -106 -3 -74 -4 -79 -28 -85 -16 -5 0 -7 44 -8 38 -1 66 2 62 7 -4 4 -13 7 -19 7 -8 0 -14 31 -17 91 -3 56 -10 97 -19 108 -17 20 -57 21 -95 1 -36 -19 -47 -19 -40 0 6 15 4 16 -48 8z m180 -48 c-3 -3 -9 2 -12 12 -6 14 -5 15 5 6 7 -7 10 -15 7 -18z"/> <path d="M8349 749 c-14 -14 -19 -30 -17 -52 3 -28 10 -35 61 -59 38 -19 57 -34 57 -46 0 -26 -20 -42 -52 -42 -22 0 -33 8 -46 30 -22 39 -29 38 -24 -4 4 -31 8 -34 44 -40 47 -8 103 15 111 45 12 44 -7 70 -63 93 -64 26 -79 58 -36 77 20 10 30 9 51 -5 14 -9 25 -23 25 -31 0 -8 4 -15 8 -15 5 0 7 13 4 29 -3 19 -11 31 -26 35 -41 11 -76 6 -97 -15z m36 -87 c-3 -3 -11 0 -18 7 -9 10 -8 11 6 5 10 -3 15 -9 12 -12z"/> <path d="M3650 751 c0 -6 4 -13 10 -16 6 -3 7 1 4 9 -7 18 -14 21 -14 7z"/> <path d="M1247 743 c-4 -3 -7 -11 -7 -17 0 -6 5 -5 12 2 6 6 9 14 7 17 -3 3 -9 2 -12 -2z"/> <path d="M7406 723 c-6 -14 -5 -15 5 -6 7 7 10 15 7 18 -3 3 -9 -2 -12 -12z"/> <path d="M5110 720 c-9 -6 -10 -10 -3 -10 6 0 15 5 18 10 8 12 4 12 -15 0z"/> <path d="M6460 720 c-9 -6 -10 -10 -3 -10 6 0 15 5 18 10 8 12 4 12 -15 0z"/> <path d="M7526 721 c-4 -5 -2 -12 3 -15 5 -4 12 -2 15 3 4 5 2 12 -3 15 -5 4 -12 2 -15 -3z"/> <path d="M7868 723 c7 -3 16 -2 19 1 4 3 -2 6 -13 5 -11 0 -14 -3 -6 -6z"/> <path d="M8416 708 c3 -5 10 -6 15 -3 13 9 11 12 -6 12 -8 0 -12 -4 -9 -9z"/> <path d="M3336 697 c3 -10 9 -15 12 -12 3 3 0 11 -7 18 -10 9 -11 8 -5 -6z"/> <path d="M6050 696 c7 -7 13 -7 20 0 6 6 3 10 -10 10 -13 0 -16 -4 -10 -10z"/> <path d="M6675 680 c-3 -5 1 -10 10 -10 9 0 13 5 10 10 -3 6 -8 10 -10 10 -2 0 -7 -4 -10 -10z"/> <path d="M7391 654 c0 -11 3 -14 6 -6 3 7 2 16 -1 19 -3 4 -6 -2 -5 -13z"/> <path d="M1161 644 c0 -11 3 -14 6 -6 3 7 2 16 -1 19 -3 4 -6 -2 -5 -13z"/> <path d="M6650 639 c0 -5 5 -7 10 -4 6 3 10 8 10 11 0 2 -4 4 -10 4 -5 0 -10 -5 -10 -11z"/> <path d="M8541 643 c-1 -6 -4 -20 -7 -30 -5 -17 -5 -17 6 0 6 10 9 23 6 30 -3 9 -5 9 -5 0z"/> <path d="M1125 621 c-3 -5 -2 -12 3 -15 5 -3 9 1 9 9 0 17 -3 19 -12 6z"/> <path d="M3575 621 c-3 -5 -2 -12 3 -15 5 -3 9 1 9 9 0 17 -3 19 -12 6z"/> <path d="M3206 608 c3 -4 12 -8 20 -8 8 0 14 4 14 8 0 4 -9 8 -19 8 -11 0 -17 -4 -15 -8z"/> <path d="M3652 604 c10 -10 20 -16 22 -13 3 3 -5 11 -17 18 -21 13 -21 12 -5 -5z"/> <path d="M5101 604 c0 -11 3 -14 6 -6 3 7 2 16 -1 19 -3 4 -6 -2 -5 -13z"/> <path d="M6287 609 c7 -7 15 -10 18 -7 3 3 -2 9 -12 12 -14 6 -15 5 -6 -5z"/> <path d="M6905 610 c-3 -5 -1 -10 4 -10 6 0 11 5 11 10 0 6 -2 10 -4 10 -3 0 -8 -4 -11 -10z"/> <path d="M7257 613 c-4 -3 -7 -11 -7 -17 0 -6 5 -5 12 2 6 6 9 14 7 17 -3 3 -9 2 -12 -2z"/> <path d="M7537 598 c19 -21 31 -25 14 -5 -6 8 -9 16 -6 19 3 2 -2 5 -10 5 -13 0 -13 -3 2 -19z"/> <path d="M1650 600 c0 -5 5 -10 11 -10 5 0 7 5 4 10 -3 6 -8 10 -11 10 -2 0 -4 -4 -4 -10z"/> <path d="M4605 600 c-3 -6 1 -7 9 -4 18 7 21 14 7 14 -6 0 -13 -4 -16 -10z"/> <path d="M6073 603 c-16 -6 -17 -29 -1 -39 7 -4 8 -3 4 5 -4 6 -2 18 4 26 13 16 12 16 -7 8z"/> <path d="M1056 592 c-3 -5 8 -6 25 -4 16 2 29 6 29 8 0 8 -49 4 -54 -4z"/> <path d="M2796 586 c5 -13 4 -17 -4 -12 -7 4 -12 2 -12 -3 0 -14 17 -14 26 0 3 6 1 16 -5 22 -9 9 -10 7 -5 -7z"/> <path d="M3370 595 c0 -5 5 -17 10 -25 5 -8 10 -10 10 -5 0 6 -5 17 -10 25 -5 8 -10 11 -10 5z"/> <path d="M5920 596 c0 -2 7 -7 16 -10 8 -3 12 -2 9 4 -6 10 -25 14 -25 6z"/> <path d="M2390 580 c0 -6 4 -9 9 -6 5 4 12 1 14 -4 3 -6 4 -5 3 2 -3 15 -26 23 -26 8z"/> <path d="M3646 577 c3 -10 9 -15 12 -12 3 3 0 11 -7 18 -10 9 -11 8 -5 -6z"/> <path d="M911 562 c-8 -16 -6 -18 19 -18 16 0 27 3 24 7 -2 5 -12 5 -21 2 -12 -5 -15 -2 -10 10 9 23 0 22 -12 -1z"/> <path d="M6646 563 c-6 -14 -5 -15 5 -6 7 7 10 15 7 18 -3 3 -9 -2 -12 -12z"/> <path d="M4696 557 c3 -10 9 -15 12 -12 3 3 0 11 -7 18 -10 9 -11 8 -5 -6z"/> <path d="M4970 561 c0 -7 -5 -9 -12 -5 -7 5 -8 3 -3 -5 5 -9 10 -10 18 -2 6 6 8 14 4 18 -4 3 -7 1 -7 -6z"/> <path d="M8541 554 c0 -11 3 -14 6 -6 3 7 2 16 -1 19 -3 4 -6 -2 -5 -13z"/> <path d="M6228 503 c7 -3 16 -2 19 1 4 3 -2 6 -13 5 -11 0 -14 -3 -6 -6z"/> <path d="M2138 493 c7 -3 16 -2 19 1 4 3 -2 6 -13 5 -11 0 -14 -3 -6 -6z"/> <path d="M2828 483 c7 -3 16 -2 19 1 4 3 -2 6 -13 5 -11 0 -14 -3 -6 -6z"/> <path d="M3032 481 c-11 -7 -10 -9 3 -14 9 -4 13 -3 10 2 -3 5 3 12 12 14 13 3 14 5 3 6 -8 0 -21 -3 -28 -8z"/> <path d="M3493 483 c9 -2 25 -2 35 0 9 3 1 5 -18 5 -19 0 -27 -2 -17 -5z"/> <path d="M3990 480 c-18 -12 -2 -12 25 0 13 6 15 9 5 9 -8 0 -22 -4 -30 -9z"/> <path d="M4248 483 c6 -2 18 -2 25 0 6 3 1 5 -13 5 -14 0 -19 -2 -12 -5z"/> <path d="M4793 483 c9 -2 23 -2 30 0 6 3 -1 5 -18 5 -16 0 -22 -2 -12 -5z"/> <path d="M6038 483 c7 -3 16 -2 19 1 4 3 -2 6 -13 5 -11 0 -14 -3 -6 -6z"/> <path d="M6258 483 c6 -2 18 -2 25 0 6 3 1 5 -13 5 -14 0 -19 -2 -12 -5z"/> <path d="M6748 483 c7 -3 16 -2 19 1 4 3 -2 6 -13 5 -11 0 -14 -3 -6 -6z"/> <path d="M7288 483 c7 -3 16 -2 19 1 4 3 -2 6 -13 5 -11 0 -14 -3 -6 -6z"/> <path d="M7528 483 c6 -2 18 -2 25 0 6 3 1 5 -13 5 -14 0 -19 -2 -12 -5z"/> <path d="M7825 480 c27 -12 43 -12 25 0 -8 5 -22 9 -30 9 -10 0 -8 -3 5 -9z"/> <path d="M2328 473 c7 -3 16 -2 19 1 4 3 -2 6 -13 5 -11 0 -14 -3 -6 -6z"/> <path d="M2518 473 c7 -3 16 -2 19 1 4 3 -2 6 -13 5 -11 0 -14 -3 -6 -6z"/> <path d="M8310 470 c-8 -5 -10 -10 -5 -10 6 0 17 5 25 10 8 5 11 10 5 10 -5 0 -17 -5 -25 -10z"/> <path d="M1923 455 c0 -8 4 -12 9 -9 5 3 6 10 3 15 -9 13 -12 11 -12 -6z"/> <path d="M3478 463 c7 -3 16 -2 19 1 4 3 -2 6 -13 5 -11 0 -14 -3 -6 -6z"/> <path d="M7058 463 c7 -3 16 -2 19 1 4 3 -2 6 -13 5 -11 0 -14 -3 -6 -6z"/> <path d="M8358 463 c7 -3 16 -2 19 1 4 3 -2 6 -13 5 -11 0 -14 -3 -6 -6z"/> <path d="M1926 401 c-4 -5 3 -7 14 -4 23 6 26 13 6 13 -8 0 -17 -4 -20 -9z"/> <path d="M1975 390 c3 -5 8 -10 11 -10 2 0 4 5 4 10 0 6 -5 10 -11 10 -5 0 -7 -4 -4 -10z"/> <path d="M2000 396 c0 -2 9 -6 20 -9 11 -3 18 -1 14 4 -5 9 -34 13 -34 5z"/> <path d="M4900 396 c0 -2 7 -7 16 -10 8 -3 12 -2 9 4 -6 10 -25 14 -25 6z"/> </g> </svg>